%TF.GenerationSoftware,KiCad,Pcbnew,9.0.2-9.0.2-0~ubuntu22.04.1*%
%TF.CreationDate,2025-07-10T14:11:49-04:00*%
%TF.ProjectId,SOYCC,534f5943-432e-46b6-9963-61645f706362,rev?*%
%TF.SameCoordinates,Original*%
%TF.FileFunction,Legend,Top*%
%TF.FilePolarity,Positive*%
%FSLAX46Y46*%
G04 Gerber Fmt 4.6, Leading zero omitted, Abs format (unit mm)*
G04 Created by KiCad (PCBNEW 9.0.2-9.0.2-0~ubuntu22.04.1) date 2025-07-10 14:11:49*
%MOMM*%
%LPD*%
G01*
G04 APERTURE LIST*
%ADD10C,0.250000*%
%ADD11C,0.300000*%
%ADD12C,0.150000*%
%ADD13C,0.120000*%
G04 APERTURE END LIST*
D10*
X132482568Y-83684619D02*
X132482568Y-82684619D01*
X132482568Y-82684619D02*
X132863520Y-82684619D01*
X132863520Y-82684619D02*
X132958758Y-82732238D01*
X132958758Y-82732238D02*
X133006377Y-82779857D01*
X133006377Y-82779857D02*
X133053996Y-82875095D01*
X133053996Y-82875095D02*
X133053996Y-83017952D01*
X133053996Y-83017952D02*
X133006377Y-83113190D01*
X133006377Y-83113190D02*
X132958758Y-83160809D01*
X132958758Y-83160809D02*
X132863520Y-83208428D01*
X132863520Y-83208428D02*
X132482568Y-83208428D01*
X133387330Y-82684619D02*
X133625425Y-83684619D01*
X133625425Y-83684619D02*
X133815901Y-82970333D01*
X133815901Y-82970333D02*
X134006377Y-83684619D01*
X134006377Y-83684619D02*
X134244473Y-82684619D01*
X135196853Y-83684619D02*
X134863520Y-83208428D01*
X134625425Y-83684619D02*
X134625425Y-82684619D01*
X134625425Y-82684619D02*
X135006377Y-82684619D01*
X135006377Y-82684619D02*
X135101615Y-82732238D01*
X135101615Y-82732238D02*
X135149234Y-82779857D01*
X135149234Y-82779857D02*
X135196853Y-82875095D01*
X135196853Y-82875095D02*
X135196853Y-83017952D01*
X135196853Y-83017952D02*
X135149234Y-83113190D01*
X135149234Y-83113190D02*
X135101615Y-83160809D01*
X135101615Y-83160809D02*
X135006377Y-83208428D01*
X135006377Y-83208428D02*
X134625425Y-83208428D01*
D11*
X132563082Y-79104400D02*
X132777368Y-79175828D01*
X132777368Y-79175828D02*
X133134510Y-79175828D01*
X133134510Y-79175828D02*
X133277368Y-79104400D01*
X133277368Y-79104400D02*
X133348796Y-79032971D01*
X133348796Y-79032971D02*
X133420225Y-78890114D01*
X133420225Y-78890114D02*
X133420225Y-78747257D01*
X133420225Y-78747257D02*
X133348796Y-78604400D01*
X133348796Y-78604400D02*
X133277368Y-78532971D01*
X133277368Y-78532971D02*
X133134510Y-78461542D01*
X133134510Y-78461542D02*
X132848796Y-78390114D01*
X132848796Y-78390114D02*
X132705939Y-78318685D01*
X132705939Y-78318685D02*
X132634510Y-78247257D01*
X132634510Y-78247257D02*
X132563082Y-78104400D01*
X132563082Y-78104400D02*
X132563082Y-77961542D01*
X132563082Y-77961542D02*
X132634510Y-77818685D01*
X132634510Y-77818685D02*
X132705939Y-77747257D01*
X132705939Y-77747257D02*
X132848796Y-77675828D01*
X132848796Y-77675828D02*
X133205939Y-77675828D01*
X133205939Y-77675828D02*
X133420225Y-77747257D01*
X134063081Y-79175828D02*
X134063081Y-77675828D01*
X134705939Y-79175828D02*
X134705939Y-78390114D01*
X134705939Y-78390114D02*
X134634510Y-78247257D01*
X134634510Y-78247257D02*
X134491653Y-78175828D01*
X134491653Y-78175828D02*
X134277367Y-78175828D01*
X134277367Y-78175828D02*
X134134510Y-78247257D01*
X134134510Y-78247257D02*
X134063081Y-78318685D01*
X135420224Y-79175828D02*
X135420224Y-78175828D01*
X135420224Y-77675828D02*
X135348796Y-77747257D01*
X135348796Y-77747257D02*
X135420224Y-77818685D01*
X135420224Y-77818685D02*
X135491653Y-77747257D01*
X135491653Y-77747257D02*
X135420224Y-77675828D01*
X135420224Y-77675828D02*
X135420224Y-77818685D01*
X136134510Y-78175828D02*
X136134510Y-79175828D01*
X136134510Y-78318685D02*
X136205939Y-78247257D01*
X136205939Y-78247257D02*
X136348796Y-78175828D01*
X136348796Y-78175828D02*
X136563082Y-78175828D01*
X136563082Y-78175828D02*
X136705939Y-78247257D01*
X136705939Y-78247257D02*
X136777368Y-78390114D01*
X136777368Y-78390114D02*
X136777368Y-79175828D01*
X138063082Y-79104400D02*
X137920225Y-79175828D01*
X137920225Y-79175828D02*
X137634511Y-79175828D01*
X137634511Y-79175828D02*
X137491653Y-79104400D01*
X137491653Y-79104400D02*
X137420225Y-78961542D01*
X137420225Y-78961542D02*
X137420225Y-78390114D01*
X137420225Y-78390114D02*
X137491653Y-78247257D01*
X137491653Y-78247257D02*
X137634511Y-78175828D01*
X137634511Y-78175828D02*
X137920225Y-78175828D01*
X137920225Y-78175828D02*
X138063082Y-78247257D01*
X138063082Y-78247257D02*
X138134511Y-78390114D01*
X138134511Y-78390114D02*
X138134511Y-78532971D01*
X138134511Y-78532971D02*
X137420225Y-78675828D01*
X140134510Y-79175828D02*
X139991653Y-79104400D01*
X139991653Y-79104400D02*
X139920224Y-79032971D01*
X139920224Y-79032971D02*
X139848796Y-78890114D01*
X139848796Y-78890114D02*
X139848796Y-78461542D01*
X139848796Y-78461542D02*
X139920224Y-78318685D01*
X139920224Y-78318685D02*
X139991653Y-78247257D01*
X139991653Y-78247257D02*
X140134510Y-78175828D01*
X140134510Y-78175828D02*
X140348796Y-78175828D01*
X140348796Y-78175828D02*
X140491653Y-78247257D01*
X140491653Y-78247257D02*
X140563082Y-78318685D01*
X140563082Y-78318685D02*
X140634510Y-78461542D01*
X140634510Y-78461542D02*
X140634510Y-78890114D01*
X140634510Y-78890114D02*
X140563082Y-79032971D01*
X140563082Y-79032971D02*
X140491653Y-79104400D01*
X140491653Y-79104400D02*
X140348796Y-79175828D01*
X140348796Y-79175828D02*
X140134510Y-79175828D01*
X141277367Y-78175828D02*
X141277367Y-79175828D01*
X141277367Y-78318685D02*
X141348796Y-78247257D01*
X141348796Y-78247257D02*
X141491653Y-78175828D01*
X141491653Y-78175828D02*
X141705939Y-78175828D01*
X141705939Y-78175828D02*
X141848796Y-78247257D01*
X141848796Y-78247257D02*
X141920225Y-78390114D01*
X141920225Y-78390114D02*
X141920225Y-79175828D01*
D10*
X140626377Y-82732238D02*
X140531139Y-82684619D01*
X140531139Y-82684619D02*
X140388282Y-82684619D01*
X140388282Y-82684619D02*
X140245425Y-82732238D01*
X140245425Y-82732238D02*
X140150187Y-82827476D01*
X140150187Y-82827476D02*
X140102568Y-82922714D01*
X140102568Y-82922714D02*
X140054949Y-83113190D01*
X140054949Y-83113190D02*
X140054949Y-83256047D01*
X140054949Y-83256047D02*
X140102568Y-83446523D01*
X140102568Y-83446523D02*
X140150187Y-83541761D01*
X140150187Y-83541761D02*
X140245425Y-83637000D01*
X140245425Y-83637000D02*
X140388282Y-83684619D01*
X140388282Y-83684619D02*
X140483520Y-83684619D01*
X140483520Y-83684619D02*
X140626377Y-83637000D01*
X140626377Y-83637000D02*
X140673996Y-83589380D01*
X140673996Y-83589380D02*
X140673996Y-83256047D01*
X140673996Y-83256047D02*
X140483520Y-83256047D01*
X141102568Y-83684619D02*
X141102568Y-82684619D01*
X141102568Y-82684619D02*
X141483520Y-82684619D01*
X141483520Y-82684619D02*
X141578758Y-82732238D01*
X141578758Y-82732238D02*
X141626377Y-82779857D01*
X141626377Y-82779857D02*
X141673996Y-82875095D01*
X141673996Y-82875095D02*
X141673996Y-83017952D01*
X141673996Y-83017952D02*
X141626377Y-83113190D01*
X141626377Y-83113190D02*
X141578758Y-83160809D01*
X141578758Y-83160809D02*
X141483520Y-83208428D01*
X141483520Y-83208428D02*
X141102568Y-83208428D01*
X142102568Y-83684619D02*
X142102568Y-82684619D01*
X142769234Y-82684619D02*
X142959710Y-82684619D01*
X142959710Y-82684619D02*
X143054948Y-82732238D01*
X143054948Y-82732238D02*
X143150186Y-82827476D01*
X143150186Y-82827476D02*
X143197805Y-83017952D01*
X143197805Y-83017952D02*
X143197805Y-83351285D01*
X143197805Y-83351285D02*
X143150186Y-83541761D01*
X143150186Y-83541761D02*
X143054948Y-83637000D01*
X143054948Y-83637000D02*
X142959710Y-83684619D01*
X142959710Y-83684619D02*
X142769234Y-83684619D01*
X142769234Y-83684619D02*
X142673996Y-83637000D01*
X142673996Y-83637000D02*
X142578758Y-83541761D01*
X142578758Y-83541761D02*
X142531139Y-83351285D01*
X142531139Y-83351285D02*
X142531139Y-83017952D01*
X142531139Y-83017952D02*
X142578758Y-82827476D01*
X142578758Y-82827476D02*
X142673996Y-82732238D01*
X142673996Y-82732238D02*
X142769234Y-82684619D01*
X143578758Y-82779857D02*
X143626377Y-82732238D01*
X143626377Y-82732238D02*
X143721615Y-82684619D01*
X143721615Y-82684619D02*
X143959710Y-82684619D01*
X143959710Y-82684619D02*
X144054948Y-82732238D01*
X144054948Y-82732238D02*
X144102567Y-82779857D01*
X144102567Y-82779857D02*
X144150186Y-82875095D01*
X144150186Y-82875095D02*
X144150186Y-82970333D01*
X144150186Y-82970333D02*
X144102567Y-83113190D01*
X144102567Y-83113190D02*
X143531139Y-83684619D01*
X143531139Y-83684619D02*
X144150186Y-83684619D01*
D12*
X142529819Y-98123333D02*
X143244104Y-98123333D01*
X143244104Y-98123333D02*
X143386961Y-98170952D01*
X143386961Y-98170952D02*
X143482200Y-98266190D01*
X143482200Y-98266190D02*
X143529819Y-98409047D01*
X143529819Y-98409047D02*
X143529819Y-98504285D01*
X143529819Y-97123333D02*
X143529819Y-97694761D01*
X143529819Y-97409047D02*
X142529819Y-97409047D01*
X142529819Y-97409047D02*
X142672676Y-97504285D01*
X142672676Y-97504285D02*
X142767914Y-97599523D01*
X142767914Y-97599523D02*
X142815533Y-97694761D01*
X133244819Y-87603094D02*
X132244819Y-87603094D01*
X132244819Y-87603094D02*
X132244819Y-87364999D01*
X132244819Y-87364999D02*
X132292438Y-87222142D01*
X132292438Y-87222142D02*
X132387676Y-87126904D01*
X132387676Y-87126904D02*
X132482914Y-87079285D01*
X132482914Y-87079285D02*
X132673390Y-87031666D01*
X132673390Y-87031666D02*
X132816247Y-87031666D01*
X132816247Y-87031666D02*
X133006723Y-87079285D01*
X133006723Y-87079285D02*
X133101961Y-87126904D01*
X133101961Y-87126904D02*
X133197200Y-87222142D01*
X133197200Y-87222142D02*
X133244819Y-87364999D01*
X133244819Y-87364999D02*
X133244819Y-87603094D01*
X133244819Y-86079285D02*
X133244819Y-86650713D01*
X133244819Y-86364999D02*
X132244819Y-86364999D01*
X132244819Y-86364999D02*
X132387676Y-86460237D01*
X132387676Y-86460237D02*
X132482914Y-86555475D01*
X132482914Y-86555475D02*
X132530533Y-86650713D01*
X138884819Y-87733094D02*
X137884819Y-87733094D01*
X137884819Y-87733094D02*
X137884819Y-87494999D01*
X137884819Y-87494999D02*
X137932438Y-87352142D01*
X137932438Y-87352142D02*
X138027676Y-87256904D01*
X138027676Y-87256904D02*
X138122914Y-87209285D01*
X138122914Y-87209285D02*
X138313390Y-87161666D01*
X138313390Y-87161666D02*
X138456247Y-87161666D01*
X138456247Y-87161666D02*
X138646723Y-87209285D01*
X138646723Y-87209285D02*
X138741961Y-87256904D01*
X138741961Y-87256904D02*
X138837200Y-87352142D01*
X138837200Y-87352142D02*
X138884819Y-87494999D01*
X138884819Y-87494999D02*
X138884819Y-87733094D01*
X137980057Y-86780713D02*
X137932438Y-86733094D01*
X137932438Y-86733094D02*
X137884819Y-86637856D01*
X137884819Y-86637856D02*
X137884819Y-86399761D01*
X137884819Y-86399761D02*
X137932438Y-86304523D01*
X137932438Y-86304523D02*
X137980057Y-86256904D01*
X137980057Y-86256904D02*
X138075295Y-86209285D01*
X138075295Y-86209285D02*
X138170533Y-86209285D01*
X138170533Y-86209285D02*
X138313390Y-86256904D01*
X138313390Y-86256904D02*
X138884819Y-86828332D01*
X138884819Y-86828332D02*
X138884819Y-86209285D01*
X137614819Y-92684166D02*
X137138628Y-93017499D01*
X137614819Y-93255594D02*
X136614819Y-93255594D01*
X136614819Y-93255594D02*
X136614819Y-92874642D01*
X136614819Y-92874642D02*
X136662438Y-92779404D01*
X136662438Y-92779404D02*
X136710057Y-92731785D01*
X136710057Y-92731785D02*
X136805295Y-92684166D01*
X136805295Y-92684166D02*
X136948152Y-92684166D01*
X136948152Y-92684166D02*
X137043390Y-92731785D01*
X137043390Y-92731785D02*
X137091009Y-92779404D01*
X137091009Y-92779404D02*
X137138628Y-92874642D01*
X137138628Y-92874642D02*
X137138628Y-93255594D01*
X137614819Y-91731785D02*
X137614819Y-92303213D01*
X137614819Y-92017499D02*
X136614819Y-92017499D01*
X136614819Y-92017499D02*
X136757676Y-92112737D01*
X136757676Y-92112737D02*
X136852914Y-92207975D01*
X136852914Y-92207975D02*
X136900533Y-92303213D01*
X143329819Y-92684166D02*
X142853628Y-93017499D01*
X143329819Y-93255594D02*
X142329819Y-93255594D01*
X142329819Y-93255594D02*
X142329819Y-92874642D01*
X142329819Y-92874642D02*
X142377438Y-92779404D01*
X142377438Y-92779404D02*
X142425057Y-92731785D01*
X142425057Y-92731785D02*
X142520295Y-92684166D01*
X142520295Y-92684166D02*
X142663152Y-92684166D01*
X142663152Y-92684166D02*
X142758390Y-92731785D01*
X142758390Y-92731785D02*
X142806009Y-92779404D01*
X142806009Y-92779404D02*
X142853628Y-92874642D01*
X142853628Y-92874642D02*
X142853628Y-93255594D01*
X142425057Y-92303213D02*
X142377438Y-92255594D01*
X142377438Y-92255594D02*
X142329819Y-92160356D01*
X142329819Y-92160356D02*
X142329819Y-91922261D01*
X142329819Y-91922261D02*
X142377438Y-91827023D01*
X142377438Y-91827023D02*
X142425057Y-91779404D01*
X142425057Y-91779404D02*
X142520295Y-91731785D01*
X142520295Y-91731785D02*
X142615533Y-91731785D01*
X142615533Y-91731785D02*
X142758390Y-91779404D01*
X142758390Y-91779404D02*
X143329819Y-92350832D01*
X143329819Y-92350832D02*
X143329819Y-91731785D01*
D13*
%TO.C,J1*%
X143950000Y-99050000D02*
X143950000Y-98290000D01*
X144075000Y-96530000D02*
X149295000Y-96530000D01*
X144075000Y-96879970D02*
X144075000Y-96530000D01*
X144685000Y-99050000D02*
X143950000Y-99050000D01*
X145420000Y-99050000D02*
X145420000Y-98975565D01*
X145420000Y-99050000D02*
X149295000Y-99050000D01*
X149295000Y-96879970D02*
X149295000Y-96530000D01*
X149295000Y-97879970D02*
X149295000Y-97700030D01*
X149295000Y-99050000D02*
X149295000Y-98700030D01*
%TO.C,D1*%
X133485000Y-85265000D02*
X133485000Y-89150000D01*
X133485000Y-89150000D02*
X135755000Y-89150000D01*
X135755000Y-89150000D02*
X135755000Y-85265000D01*
%TO.C,D2*%
X139200000Y-85265000D02*
X139200000Y-89150000D01*
X139200000Y-89150000D02*
X141470000Y-89150000D01*
X141470000Y-89150000D02*
X141470000Y-85265000D01*
%TO.C,R1*%
X133710000Y-91790436D02*
X133710000Y-93244564D01*
X135530000Y-91790436D02*
X135530000Y-93244564D01*
%TO.C,R2*%
X139425000Y-91790436D02*
X139425000Y-93244564D01*
X141245000Y-91790436D02*
X141245000Y-93244564D01*
%TD*%
M02*
