%TF.GenerationSoftware,KiCad,Pcbnew,9.0.2-9.0.2-0~ubuntu22.04.1*%
%TF.CreationDate,2025-07-10T14:00:21-04:00*%
%TF.ProjectId,GettingToBlinky5.0,47657474-696e-4675-946f-426c696e6b79,rev?*%
%TF.SameCoordinates,Original*%
%TF.FileFunction,Legend,Bot*%
%TF.FilePolarity,Positive*%
%FSLAX46Y46*%
G04 Gerber Fmt 4.6, Leading zero omitted, Abs format (unit mm)*
G04 Created by KiCad (PCBNEW 9.0.2-9.0.2-0~ubuntu22.04.1) date 2025-07-10 14:00:21*
%MOMM*%
%LPD*%
G01*
G04 APERTURE LIST*
%ADD10C,0.100000*%
G04 APERTURE END LIST*
D10*
X141685714Y-114033609D02*
X141542857Y-114081228D01*
X141542857Y-114081228D02*
X141495238Y-114128847D01*
X141495238Y-114128847D02*
X141447619Y-114224085D01*
X141447619Y-114224085D02*
X141447619Y-114366942D01*
X141447619Y-114366942D02*
X141495238Y-114462180D01*
X141495238Y-114462180D02*
X141542857Y-114509800D01*
X141542857Y-114509800D02*
X141638095Y-114557419D01*
X141638095Y-114557419D02*
X142019047Y-114557419D01*
X142019047Y-114557419D02*
X142019047Y-113557419D01*
X142019047Y-113557419D02*
X141685714Y-113557419D01*
X141685714Y-113557419D02*
X141590476Y-113605038D01*
X141590476Y-113605038D02*
X141542857Y-113652657D01*
X141542857Y-113652657D02*
X141495238Y-113747895D01*
X141495238Y-113747895D02*
X141495238Y-113843133D01*
X141495238Y-113843133D02*
X141542857Y-113938371D01*
X141542857Y-113938371D02*
X141590476Y-113985990D01*
X141590476Y-113985990D02*
X141685714Y-114033609D01*
X141685714Y-114033609D02*
X142019047Y-114033609D01*
X141161904Y-113557419D02*
X140590476Y-113557419D01*
X140876190Y-114557419D02*
X140876190Y-113557419D01*
X139733333Y-114557419D02*
X140304761Y-114557419D01*
X140019047Y-114557419D02*
X140019047Y-113557419D01*
X140019047Y-113557419D02*
X140114285Y-113700276D01*
X140114285Y-113700276D02*
X140209523Y-113795514D01*
X140209523Y-113795514D02*
X140304761Y-113843133D01*
%TO.C,BT1*%
X131000000Y-100800000D02*
X131000000Y-121800000D01*
X151000000Y-100800000D02*
X131000000Y-100800000D01*
X151000000Y-121800000D02*
X131000000Y-121800000D01*
X151000000Y-121800000D02*
X151000000Y-100800000D01*
%TD*%
M02*
