%TF.GenerationSoftware,KiCad,Pcbnew,9.0.2-9.0.2-0~ubuntu22.04.1*%
%TF.CreationDate,2025-07-10T14:00:20-04:00*%
%TF.ProjectId,GettingToBlinky5.0,47657474-696e-4675-946f-426c696e6b79,rev?*%
%TF.SameCoordinates,Original*%
%TF.FileFunction,Copper,L1,Top*%
%TF.FilePolarity,Positive*%
%FSLAX46Y46*%
G04 Gerber Fmt 4.6, Leading zero omitted, Abs format (unit mm)*
G04 Created by KiCad (PCBNEW 9.0.2-9.0.2-0~ubuntu22.04.1) date 2025-07-10 14:00:20*
%MOMM*%
%LPD*%
G01*
G04 APERTURE LIST*
G04 Aperture macros list*
%AMRoundRect*
0 Rectangle with rounded corners*
0 $1 Rounding radius*
0 $2 $3 $4 $5 $6 $7 $8 $9 X,Y pos of 4 corners*
0 Add a 4 corners polygon primitive as box body*
4,1,4,$2,$3,$4,$5,$6,$7,$8,$9,$2,$3,0*
0 Add four circle primitives for the rounded corners*
1,1,$1+$1,$2,$3*
1,1,$1+$1,$4,$5*
1,1,$1+$1,$6,$7*
1,1,$1+$1,$8,$9*
0 Add four rect primitives between the rounded corners*
20,1,$1+$1,$2,$3,$4,$5,0*
20,1,$1+$1,$4,$5,$6,$7,0*
20,1,$1+$1,$6,$7,$8,$9,0*
20,1,$1+$1,$8,$9,$2,$3,0*%
G04 Aperture macros list end*
%ADD10C,0.300000*%
%TA.AperFunction,SMDPad,CuDef*%
%ADD11RoundRect,0.150000X-0.725000X-0.150000X0.725000X-0.150000X0.725000X0.150000X-0.725000X0.150000X0*%
%TD*%
%TA.AperFunction,SMDPad,CuDef*%
%ADD12RoundRect,0.250000X0.475000X-0.250000X0.475000X0.250000X-0.475000X0.250000X-0.475000X-0.250000X0*%
%TD*%
%TA.AperFunction,SMDPad,CuDef*%
%ADD13RoundRect,0.250000X-0.450000X0.262500X-0.450000X-0.262500X0.450000X-0.262500X0.450000X0.262500X0*%
%TD*%
%TA.AperFunction,SMDPad,CuDef*%
%ADD14RoundRect,0.243750X0.456250X-0.243750X0.456250X0.243750X-0.456250X0.243750X-0.456250X-0.243750X0*%
%TD*%
%TA.AperFunction,ViaPad*%
%ADD15C,0.750000*%
%TD*%
%TA.AperFunction,Conductor*%
%ADD16C,0.200000*%
%TD*%
G04 APERTURE END LIST*
D10*
G36*
X146247368Y-127036694D02*
G01*
X146219101Y-127050828D01*
X145932777Y-127050828D01*
X145866314Y-127017597D01*
X145833082Y-126951133D01*
X145833082Y-126879094D01*
X145866313Y-126812631D01*
X145932777Y-126779400D01*
X146247368Y-126779400D01*
X146247368Y-127036694D01*
G37*
G36*
X147594229Y-126395535D02*
G01*
X147631233Y-126432539D01*
X147675939Y-126521951D01*
X147675939Y-126879704D01*
X147631232Y-126969117D01*
X147594227Y-127006122D01*
X147504815Y-127050828D01*
X147289920Y-127050828D01*
X147261653Y-127036694D01*
X147261653Y-126364962D01*
X147289921Y-126350828D01*
X147504815Y-126350828D01*
X147594229Y-126395535D01*
G37*
G36*
X148928422Y-126384060D02*
G01*
X148954597Y-126436411D01*
X148547368Y-126517857D01*
X148547368Y-126450523D01*
X148580599Y-126384060D01*
X148647064Y-126350828D01*
X148861958Y-126350828D01*
X148928422Y-126384060D01*
G37*
G36*
X146461654Y-124621778D02*
G01*
X146433387Y-124635912D01*
X146147063Y-124635912D01*
X146080600Y-124602681D01*
X146047368Y-124536217D01*
X146047368Y-124464178D01*
X146080599Y-124397715D01*
X146147063Y-124364484D01*
X146461654Y-124364484D01*
X146461654Y-124621778D01*
G37*
G36*
X147818797Y-123950046D02*
G01*
X147818797Y-124621778D01*
X147790530Y-124635912D01*
X147575635Y-124635912D01*
X147486221Y-124591205D01*
X147449216Y-124554200D01*
X147404511Y-124464788D01*
X147404511Y-124107035D01*
X147449216Y-124017624D01*
X147486221Y-123980619D01*
X147575635Y-123935912D01*
X147790529Y-123935912D01*
X147818797Y-123950046D01*
G37*
G36*
X149142708Y-123969144D02*
G01*
X149168883Y-124021495D01*
X148761654Y-124102941D01*
X148761654Y-124035607D01*
X148794885Y-123969144D01*
X148861350Y-123935912D01*
X149076244Y-123935912D01*
X149142708Y-123969144D01*
G37*
G36*
X151594229Y-123980619D02*
G01*
X151631233Y-124017623D01*
X151675939Y-124107035D01*
X151675939Y-124464788D01*
X151631232Y-124554201D01*
X151594227Y-124591206D01*
X151504815Y-124635912D01*
X151289920Y-124635912D01*
X151261653Y-124621778D01*
X151261653Y-123950046D01*
X151289921Y-123935912D01*
X151504815Y-123935912D01*
X151594229Y-123980619D01*
G37*
G36*
X153996867Y-127517495D02*
G01*
X143866415Y-127517495D01*
X143866415Y-126343685D01*
X144033082Y-126343685D01*
X144033082Y-126557971D01*
X144033584Y-126563074D01*
X144033259Y-126565262D01*
X144034878Y-126576212D01*
X144035964Y-126587235D01*
X144036811Y-126589279D01*
X144037561Y-126594351D01*
X144108989Y-126880065D01*
X144109760Y-126882223D01*
X144109837Y-126883304D01*
X144114495Y-126895478D01*
X144118882Y-126907756D01*
X144119526Y-126908626D01*
X144120346Y-126910767D01*
X144191775Y-127053624D01*
X144199702Y-127066217D01*
X144201218Y-127069877D01*
X144204599Y-127073996D01*
X144207440Y-127078510D01*
X144210433Y-127081106D01*
X144219873Y-127092608D01*
X144362730Y-127235466D01*
X144385460Y-127254121D01*
X144390439Y-127256183D01*
X144394511Y-127259715D01*
X144421362Y-127271703D01*
X144635648Y-127343131D01*
X144650160Y-127346430D01*
X144653818Y-127347946D01*
X144659120Y-127348468D01*
X144664322Y-127349651D01*
X144668276Y-127349369D01*
X144683082Y-127350828D01*
X144825939Y-127350828D01*
X144840744Y-127349369D01*
X144844699Y-127349651D01*
X144849900Y-127348468D01*
X144855203Y-127347946D01*
X144858860Y-127346430D01*
X144873373Y-127343131D01*
X145087659Y-127271703D01*
X145114510Y-127259715D01*
X145118583Y-127256181D01*
X145123561Y-127254120D01*
X145146292Y-127235465D01*
X145217720Y-127164036D01*
X145236374Y-127141306D01*
X145253426Y-127100138D01*
X145258771Y-127087235D01*
X145261653Y-127057971D01*
X145261653Y-126843685D01*
X145533082Y-126843685D01*
X145533082Y-126986542D01*
X145535964Y-127015806D01*
X145538026Y-127020784D01*
X145538408Y-127026160D01*
X145548918Y-127053623D01*
X145620346Y-127196482D01*
X145623425Y-127201374D01*
X145624196Y-127203685D01*
X145626691Y-127206562D01*
X145636011Y-127221367D01*
X145650217Y-127233688D01*
X145662543Y-127247900D01*
X145677347Y-127257218D01*
X145680225Y-127259714D01*
X145682536Y-127260484D01*
X145687429Y-127263564D01*
X145830287Y-127334993D01*
X145857750Y-127345502D01*
X145863125Y-127345883D01*
X145868104Y-127347946D01*
X145897368Y-127350828D01*
X146254510Y-127350828D01*
X146283774Y-127347946D01*
X146288752Y-127345883D01*
X146294128Y-127345502D01*
X146321591Y-127334992D01*
X146328496Y-127331539D01*
X146368104Y-127347946D01*
X146426632Y-127347946D01*
X146480704Y-127325548D01*
X146522088Y-127284164D01*
X146544486Y-127230092D01*
X146547368Y-127200828D01*
X146547368Y-126415114D01*
X146544486Y-126385850D01*
X146542422Y-126380869D01*
X146542041Y-126375495D01*
X146531532Y-126348031D01*
X146460103Y-126205175D01*
X146457022Y-126200280D01*
X146456253Y-126197973D01*
X146453760Y-126195098D01*
X146444438Y-126180289D01*
X146430228Y-126167965D01*
X146417907Y-126153758D01*
X146403101Y-126144438D01*
X146400223Y-126141942D01*
X146397911Y-126141171D01*
X146393021Y-126138093D01*
X146250164Y-126066664D01*
X146222701Y-126056155D01*
X146217326Y-126055773D01*
X146212346Y-126053710D01*
X146183082Y-126050828D01*
X145897368Y-126050828D01*
X145868104Y-126053710D01*
X145863126Y-126055771D01*
X145857749Y-126056154D01*
X145830286Y-126066664D01*
X145687428Y-126138093D01*
X145662542Y-126153758D01*
X145624196Y-126197973D01*
X145605688Y-126253495D01*
X145609836Y-126311876D01*
X145636011Y-126364225D01*
X145680226Y-126402571D01*
X145735748Y-126421079D01*
X145794129Y-126416931D01*
X145821592Y-126406421D01*
X145932778Y-126350828D01*
X146147672Y-126350828D01*
X146214136Y-126384060D01*
X146247368Y-126450524D01*
X146247368Y-126465266D01*
X146219100Y-126479400D01*
X145897368Y-126479400D01*
X145868104Y-126482282D01*
X145863125Y-126484344D01*
X145857750Y-126484726D01*
X145830287Y-126495235D01*
X145687429Y-126566664D01*
X145682535Y-126569744D01*
X145680226Y-126570514D01*
X145677350Y-126573007D01*
X145662543Y-126582328D01*
X145650218Y-126596538D01*
X145636011Y-126608860D01*
X145626690Y-126623666D01*
X145624196Y-126626543D01*
X145623425Y-126628853D01*
X145620346Y-126633746D01*
X145548918Y-126776603D01*
X145538408Y-126804067D01*
X145538026Y-126809442D01*
X145535964Y-126814421D01*
X145533082Y-126843685D01*
X145261653Y-126843685D01*
X145261653Y-126557971D01*
X145258771Y-126528707D01*
X145236373Y-126474635D01*
X145194989Y-126433251D01*
X145140917Y-126410853D01*
X145111653Y-126407971D01*
X144825939Y-126407971D01*
X144796675Y-126410853D01*
X144742603Y-126433251D01*
X144701219Y-126474635D01*
X144678821Y-126528707D01*
X144678821Y-126587235D01*
X144701219Y-126641307D01*
X144742603Y-126682691D01*
X144796675Y-126705089D01*
X144825939Y-126707971D01*
X144961653Y-126707971D01*
X144961653Y-126995839D01*
X144959198Y-126998294D01*
X144801596Y-127050828D01*
X144707425Y-127050828D01*
X144549822Y-126998294D01*
X144449217Y-126897688D01*
X144396036Y-126791328D01*
X144333082Y-126539507D01*
X144333082Y-126362148D01*
X144396036Y-126110327D01*
X144449217Y-126003967D01*
X144549823Y-125903361D01*
X144707425Y-125850828D01*
X144861958Y-125850828D01*
X144973142Y-125906421D01*
X145000606Y-125916930D01*
X145058986Y-125921079D01*
X145114508Y-125902572D01*
X145158724Y-125864225D01*
X145184898Y-125811876D01*
X145189047Y-125753496D01*
X145171491Y-125700828D01*
X146961653Y-125700828D01*
X146961653Y-127200828D01*
X146964535Y-127230092D01*
X146986933Y-127284164D01*
X147028317Y-127325548D01*
X147082389Y-127347946D01*
X147140917Y-127347946D01*
X147180523Y-127331539D01*
X147187430Y-127334993D01*
X147214893Y-127345502D01*
X147220268Y-127345883D01*
X147225247Y-127347946D01*
X147254511Y-127350828D01*
X147540225Y-127350828D01*
X147569489Y-127347946D01*
X147574467Y-127345883D01*
X147579843Y-127345502D01*
X147607307Y-127334992D01*
X147750164Y-127263564D01*
X147762757Y-127255636D01*
X147766417Y-127254121D01*
X147770536Y-127250739D01*
X147775050Y-127247899D01*
X147777646Y-127244905D01*
X147789148Y-127235466D01*
X147860577Y-127164037D01*
X147870018Y-127152532D01*
X147873010Y-127149938D01*
X147875848Y-127145428D01*
X147879232Y-127141306D01*
X147880748Y-127137644D01*
X147888675Y-127125053D01*
X147960103Y-126982195D01*
X147970613Y-126954732D01*
X147970994Y-126949356D01*
X147973057Y-126944378D01*
X147975939Y-126915114D01*
X147975939Y-126486542D01*
X147973057Y-126457278D01*
X147970994Y-126452299D01*
X147970613Y-126446924D01*
X147960103Y-126419461D01*
X147957930Y-126415114D01*
X148247368Y-126415114D01*
X148247368Y-126986542D01*
X148250250Y-127015806D01*
X148252312Y-127020784D01*
X148252694Y-127026160D01*
X148263204Y-127053623D01*
X148334632Y-127196482D01*
X148337711Y-127201374D01*
X148338482Y-127203685D01*
X148340977Y-127206562D01*
X148350297Y-127221367D01*
X148364503Y-127233688D01*
X148376829Y-127247900D01*
X148391633Y-127257218D01*
X148394511Y-127259714D01*
X148396822Y-127260484D01*
X148401715Y-127263564D01*
X148544573Y-127334993D01*
X148572036Y-127345502D01*
X148577411Y-127345883D01*
X148582390Y-127347946D01*
X148611654Y-127350828D01*
X148897368Y-127350828D01*
X148926632Y-127347946D01*
X148931610Y-127345883D01*
X148936986Y-127345502D01*
X148964450Y-127334992D01*
X149107307Y-127263564D01*
X149132193Y-127247899D01*
X149170539Y-127203684D01*
X149189047Y-127148162D01*
X149184899Y-127089782D01*
X149158725Y-127037433D01*
X149114510Y-126999086D01*
X149058987Y-126980578D01*
X149000607Y-126984726D01*
X148973144Y-126995236D01*
X148861958Y-127050828D01*
X148647063Y-127050828D01*
X148580600Y-127017597D01*
X148547368Y-126951133D01*
X148547368Y-126823798D01*
X149140917Y-126705089D01*
X149140918Y-126705089D01*
X149140918Y-126705088D01*
X149141072Y-126705058D01*
X149169202Y-126696493D01*
X149181413Y-126688314D01*
X149194990Y-126682691D01*
X149205491Y-126672189D01*
X149217832Y-126663925D01*
X149225984Y-126651697D01*
X149236374Y-126641307D01*
X149242056Y-126627587D01*
X149250296Y-126615229D01*
X149253148Y-126600811D01*
X149258772Y-126587235D01*
X149261654Y-126557971D01*
X149261654Y-126557819D01*
X149261655Y-126557814D01*
X149261654Y-126557809D01*
X149261654Y-126415114D01*
X149258772Y-126385850D01*
X149256708Y-126380869D01*
X149256327Y-126375495D01*
X149245818Y-126348031D01*
X149174389Y-126205175D01*
X149171308Y-126200280D01*
X149170539Y-126197973D01*
X149168046Y-126195098D01*
X149158724Y-126180289D01*
X149144514Y-126167965D01*
X149132193Y-126153758D01*
X149117387Y-126144438D01*
X149114509Y-126141942D01*
X149112197Y-126141171D01*
X149107307Y-126138093D01*
X148964450Y-126066664D01*
X148936987Y-126056155D01*
X148931612Y-126055773D01*
X148926632Y-126053710D01*
X148897368Y-126050828D01*
X148611654Y-126050828D01*
X148582390Y-126053710D01*
X148577412Y-126055771D01*
X148572035Y-126056154D01*
X148544572Y-126066664D01*
X148401714Y-126138093D01*
X148396819Y-126141173D01*
X148394512Y-126141943D01*
X148391637Y-126144435D01*
X148376828Y-126153758D01*
X148364505Y-126167966D01*
X148350297Y-126180289D01*
X148340974Y-126195098D01*
X148338482Y-126197973D01*
X148337712Y-126200280D01*
X148334632Y-126205175D01*
X148263204Y-126348032D01*
X148252694Y-126375496D01*
X148252312Y-126380871D01*
X148250250Y-126385850D01*
X148247368Y-126415114D01*
X147957930Y-126415114D01*
X147888675Y-126276603D01*
X147880746Y-126264008D01*
X147879231Y-126260349D01*
X147875849Y-126256228D01*
X147873010Y-126251718D01*
X147870018Y-126249123D01*
X147860576Y-126237618D01*
X147789147Y-126166190D01*
X147777647Y-126156752D01*
X147775050Y-126153758D01*
X147770533Y-126150915D01*
X147766416Y-126147536D01*
X147762759Y-126146021D01*
X147750164Y-126138093D01*
X147607307Y-126066664D01*
X147579844Y-126056155D01*
X147574469Y-126055773D01*
X147569489Y-126053710D01*
X147540225Y-126050828D01*
X147261653Y-126050828D01*
X147261653Y-125700828D01*
X147258771Y-125671564D01*
X147236373Y-125617492D01*
X147194989Y-125576108D01*
X147140917Y-125553710D01*
X147082389Y-125553710D01*
X147028317Y-125576108D01*
X146986933Y-125617492D01*
X146964535Y-125671564D01*
X146961653Y-125700828D01*
X145171491Y-125700828D01*
X145170539Y-125697973D01*
X145132193Y-125653758D01*
X145107307Y-125638093D01*
X144964450Y-125566664D01*
X144936987Y-125556155D01*
X144931612Y-125555773D01*
X144926632Y-125553710D01*
X144897368Y-125550828D01*
X144683082Y-125550828D01*
X144668270Y-125552286D01*
X144664321Y-125552006D01*
X144659126Y-125553187D01*
X144653818Y-125553710D01*
X144650156Y-125555226D01*
X144635647Y-125558526D01*
X144421362Y-125629955D01*
X144394511Y-125641943D01*
X144390441Y-125645472D01*
X144385460Y-125647536D01*
X144362730Y-125666191D01*
X144219873Y-125809048D01*
X144210433Y-125820549D01*
X144207440Y-125823146D01*
X144204599Y-125827659D01*
X144201218Y-125831779D01*
X144199702Y-125835438D01*
X144191775Y-125848032D01*
X144120346Y-125990889D01*
X144119526Y-125993029D01*
X144118882Y-125993900D01*
X144114495Y-126006177D01*
X144109837Y-126018352D01*
X144109760Y-126019432D01*
X144108989Y-126021591D01*
X144037561Y-126307305D01*
X144036811Y-126312376D01*
X144035964Y-126314421D01*
X144034878Y-126325443D01*
X144033259Y-126336394D01*
X144033584Y-126338581D01*
X144033082Y-126343685D01*
X143866415Y-126343685D01*
X143866415Y-125267150D01*
X152177117Y-125267150D01*
X152181265Y-125325530D01*
X152207440Y-125377879D01*
X152251655Y-125416226D01*
X152307177Y-125434734D01*
X152365557Y-125430586D01*
X152393021Y-125420076D01*
X152535878Y-125348648D01*
X152548471Y-125340720D01*
X152552131Y-125339205D01*
X152556250Y-125335823D01*
X152560764Y-125332983D01*
X152563360Y-125329989D01*
X152574862Y-125320550D01*
X152646291Y-125249121D01*
X152664946Y-125226390D01*
X152665302Y-125225529D01*
X152665952Y-125224864D01*
X152679497Y-125198764D01*
X152822354Y-124841620D01*
X152823140Y-124838908D01*
X152824343Y-124836362D01*
X152878322Y-124685222D01*
X153393107Y-124685222D01*
X153393107Y-124743748D01*
X153395333Y-124749121D01*
X153415504Y-124797819D01*
X153434159Y-124820550D01*
X153505587Y-124891978D01*
X153528317Y-124910633D01*
X153550714Y-124919909D01*
X153582389Y-124933030D01*
X153640917Y-124933030D01*
X153685369Y-124914617D01*
X153694988Y-124910633D01*
X153694992Y-124910628D01*
X153717718Y-124891979D01*
X153789147Y-124820551D01*
X153807802Y-124797820D01*
X153807803Y-124797819D01*
X153830200Y-124743747D01*
X153830200Y-124685221D01*
X153807803Y-124631149D01*
X153789148Y-124608418D01*
X153717719Y-124536989D01*
X153694988Y-124518334D01*
X153658045Y-124503032D01*
X153640917Y-124495937D01*
X153582389Y-124495937D01*
X153565261Y-124503032D01*
X153528318Y-124518334D01*
X153528317Y-124518335D01*
X153505586Y-124536990D01*
X153434158Y-124608419D01*
X153415508Y-124631144D01*
X153415504Y-124631149D01*
X153395334Y-124679846D01*
X153393107Y-124685222D01*
X152878322Y-124685222D01*
X153158935Y-123899506D01*
X153393107Y-123899506D01*
X153393107Y-123958032D01*
X153415504Y-124012104D01*
X153415508Y-124012108D01*
X153434158Y-124034834D01*
X153505586Y-124106263D01*
X153528317Y-124124918D01*
X153528318Y-124124919D01*
X153557702Y-124137090D01*
X153582389Y-124147316D01*
X153582390Y-124147316D01*
X153640915Y-124147316D01*
X153640916Y-124147316D01*
X153640917Y-124147316D01*
X153665604Y-124137090D01*
X153694988Y-124124919D01*
X153717719Y-124106264D01*
X153789148Y-124034835D01*
X153807803Y-124012104D01*
X153830200Y-123958032D01*
X153830200Y-123899506D01*
X153807803Y-123845434D01*
X153807802Y-123845433D01*
X153789147Y-123822702D01*
X153717718Y-123751274D01*
X153694992Y-123732624D01*
X153694988Y-123732620D01*
X153679151Y-123726060D01*
X153640917Y-123710223D01*
X153582389Y-123710223D01*
X153551116Y-123723177D01*
X153528317Y-123732620D01*
X153505587Y-123751275D01*
X153434159Y-123822703D01*
X153415504Y-123845434D01*
X153408772Y-123861687D01*
X153394162Y-123896960D01*
X153393107Y-123899506D01*
X153158935Y-123899506D01*
X153181486Y-123836363D01*
X153188615Y-123807834D01*
X153185708Y-123749379D01*
X153160654Y-123696487D01*
X153117265Y-123657207D01*
X153062147Y-123637522D01*
X153003692Y-123640429D01*
X152950800Y-123665483D01*
X152911520Y-123708872D01*
X152898964Y-123735462D01*
X152683082Y-124339931D01*
X152467200Y-123735462D01*
X152454644Y-123708872D01*
X152415364Y-123665483D01*
X152362472Y-123640429D01*
X152304017Y-123637522D01*
X152248899Y-123657207D01*
X152205510Y-123696487D01*
X152180456Y-123749379D01*
X152177549Y-123807834D01*
X152184678Y-123836362D01*
X152522729Y-124782906D01*
X152412387Y-125058760D01*
X152379941Y-125091206D01*
X152258857Y-125151748D01*
X152233972Y-125167413D01*
X152195625Y-125211628D01*
X152177117Y-125267150D01*
X143866415Y-125267150D01*
X143866415Y-123285912D01*
X144104510Y-123285912D01*
X144104510Y-124785912D01*
X144107392Y-124815176D01*
X144129790Y-124869248D01*
X144171174Y-124910632D01*
X144225246Y-124933030D01*
X144283774Y-124933030D01*
X144337846Y-124910632D01*
X144379230Y-124869248D01*
X144401628Y-124815176D01*
X144404510Y-124785912D01*
X144404510Y-123962045D01*
X144618583Y-124420774D01*
X144624929Y-124431487D01*
X144626250Y-124435119D01*
X144628601Y-124437687D01*
X144633570Y-124446074D01*
X144650375Y-124461464D01*
X144665777Y-124478282D01*
X144671820Y-124481102D01*
X144676733Y-124485601D01*
X144698153Y-124493390D01*
X144718815Y-124503032D01*
X144725472Y-124503324D01*
X144731735Y-124505602D01*
X144754514Y-124504601D01*
X144777285Y-124505602D01*
X144783544Y-124503325D01*
X144790206Y-124503033D01*
X144810873Y-124493388D01*
X144832288Y-124485601D01*
X144837201Y-124481101D01*
X144843243Y-124478282D01*
X144858638Y-124461469D01*
X144875451Y-124446074D01*
X144880419Y-124437685D01*
X144882770Y-124435119D01*
X144884089Y-124431489D01*
X144890437Y-124420774D01*
X145104510Y-123962046D01*
X145104510Y-124785912D01*
X145107392Y-124815176D01*
X145129790Y-124869248D01*
X145171174Y-124910632D01*
X145225246Y-124933030D01*
X145283774Y-124933030D01*
X145337846Y-124910632D01*
X145379230Y-124869248D01*
X145401628Y-124815176D01*
X145404510Y-124785912D01*
X145404510Y-124428769D01*
X145747368Y-124428769D01*
X145747368Y-124571626D01*
X145750250Y-124600890D01*
X145752312Y-124605868D01*
X145752694Y-124611244D01*
X145763204Y-124638707D01*
X145834632Y-124781566D01*
X145837711Y-124786458D01*
X145838482Y-124788769D01*
X145840977Y-124791646D01*
X145850297Y-124806451D01*
X145864503Y-124818772D01*
X145876829Y-124832984D01*
X145891633Y-124842302D01*
X145894511Y-124844798D01*
X145896822Y-124845568D01*
X145901715Y-124848648D01*
X146044573Y-124920077D01*
X146072036Y-124930586D01*
X146077411Y-124930967D01*
X146082390Y-124933030D01*
X146111654Y-124935912D01*
X146468796Y-124935912D01*
X146498060Y-124933030D01*
X146503038Y-124930967D01*
X146508414Y-124930586D01*
X146535877Y-124920076D01*
X146542782Y-124916623D01*
X146582390Y-124933030D01*
X146640918Y-124933030D01*
X146694990Y-124910632D01*
X146736374Y-124869248D01*
X146758772Y-124815176D01*
X146761654Y-124785912D01*
X146761654Y-124071626D01*
X147104511Y-124071626D01*
X147104511Y-124500198D01*
X147107393Y-124529462D01*
X147109455Y-124534440D01*
X147109837Y-124539816D01*
X147120347Y-124567280D01*
X147191775Y-124710137D01*
X147199702Y-124722730D01*
X147201218Y-124726390D01*
X147204599Y-124730509D01*
X147207440Y-124735023D01*
X147210433Y-124737619D01*
X147219873Y-124749121D01*
X147291302Y-124820550D01*
X147302806Y-124829991D01*
X147305401Y-124832983D01*
X147309910Y-124835821D01*
X147314033Y-124839205D01*
X147317694Y-124840721D01*
X147330286Y-124848648D01*
X147473144Y-124920076D01*
X147500607Y-124930586D01*
X147505982Y-124930967D01*
X147510961Y-124933030D01*
X147540225Y-124935912D01*
X147825939Y-124935912D01*
X147855203Y-124933030D01*
X147860181Y-124930967D01*
X147865557Y-124930586D01*
X147893020Y-124920076D01*
X147899925Y-124916623D01*
X147939533Y-124933030D01*
X147998061Y-124933030D01*
X148052133Y-124910632D01*
X148093517Y-124869248D01*
X148115915Y-124815176D01*
X148118797Y-124785912D01*
X148118797Y-124000198D01*
X148461654Y-124000198D01*
X148461654Y-124571626D01*
X148464536Y-124600890D01*
X148466598Y-124605868D01*
X148466980Y-124611244D01*
X148477490Y-124638707D01*
X148548918Y-124781566D01*
X148551997Y-124786458D01*
X148552768Y-124788769D01*
X148555263Y-124791646D01*
X148564583Y-124806451D01*
X148578789Y-124818772D01*
X148591115Y-124832984D01*
X148605919Y-124842302D01*
X148608797Y-124844798D01*
X148611108Y-124845568D01*
X148616001Y-124848648D01*
X148758859Y-124920077D01*
X148786322Y-124930586D01*
X148791697Y-124930967D01*
X148796676Y-124933030D01*
X148825940Y-124935912D01*
X149111654Y-124935912D01*
X149140918Y-124933030D01*
X149145896Y-124930967D01*
X149151272Y-124930586D01*
X149178736Y-124920076D01*
X149321593Y-124848648D01*
X149346479Y-124832983D01*
X149384825Y-124788768D01*
X149403333Y-124733246D01*
X149399185Y-124674866D01*
X149373011Y-124622517D01*
X149328796Y-124584170D01*
X149273273Y-124565662D01*
X149214893Y-124569810D01*
X149187430Y-124580320D01*
X149076244Y-124635912D01*
X148861349Y-124635912D01*
X148794886Y-124602681D01*
X148761654Y-124536217D01*
X148761654Y-124408882D01*
X149355203Y-124290173D01*
X149355204Y-124290173D01*
X149355204Y-124290172D01*
X149355358Y-124290142D01*
X149383488Y-124281577D01*
X149395699Y-124273398D01*
X149409276Y-124267775D01*
X149419777Y-124257273D01*
X149432118Y-124249009D01*
X149440270Y-124236781D01*
X149450660Y-124226391D01*
X149456342Y-124212671D01*
X149464582Y-124200313D01*
X149467434Y-124185895D01*
X149473058Y-124172319D01*
X149475940Y-124143055D01*
X149475940Y-124142903D01*
X149475941Y-124142898D01*
X149475940Y-124142893D01*
X149475940Y-124000198D01*
X149473058Y-123970934D01*
X149470994Y-123965953D01*
X149470613Y-123960579D01*
X149460104Y-123933115D01*
X149388675Y-123790259D01*
X149385594Y-123785364D01*
X149384825Y-123783057D01*
X149382332Y-123780182D01*
X149373010Y-123765373D01*
X149358800Y-123753049D01*
X149346479Y-123738842D01*
X149331673Y-123729522D01*
X149328795Y-123727026D01*
X149326483Y-123726255D01*
X149321593Y-123723177D01*
X149178736Y-123651748D01*
X149151273Y-123641239D01*
X149145898Y-123640857D01*
X149140918Y-123638794D01*
X149111654Y-123635912D01*
X148825940Y-123635912D01*
X148796676Y-123638794D01*
X148791698Y-123640855D01*
X148786321Y-123641238D01*
X148758858Y-123651748D01*
X148616000Y-123723177D01*
X148611105Y-123726257D01*
X148608798Y-123727027D01*
X148605923Y-123729519D01*
X148591114Y-123738842D01*
X148578791Y-123753050D01*
X148564583Y-123765373D01*
X148555260Y-123780182D01*
X148552768Y-123783057D01*
X148551998Y-123785364D01*
X148548918Y-123790259D01*
X148477490Y-123933116D01*
X148466980Y-123960580D01*
X148466598Y-123965955D01*
X148464536Y-123970934D01*
X148461654Y-124000198D01*
X148118797Y-124000198D01*
X148118797Y-123285912D01*
X150961653Y-123285912D01*
X150961653Y-124785912D01*
X150964535Y-124815176D01*
X150986933Y-124869248D01*
X151028317Y-124910632D01*
X151082389Y-124933030D01*
X151140917Y-124933030D01*
X151180523Y-124916623D01*
X151187430Y-124920077D01*
X151214893Y-124930586D01*
X151220268Y-124930967D01*
X151225247Y-124933030D01*
X151254511Y-124935912D01*
X151540225Y-124935912D01*
X151569489Y-124933030D01*
X151574467Y-124930967D01*
X151579843Y-124930586D01*
X151607307Y-124920076D01*
X151750164Y-124848648D01*
X151762757Y-124840720D01*
X151766417Y-124839205D01*
X151770536Y-124835823D01*
X151775050Y-124832983D01*
X151777646Y-124829989D01*
X151789148Y-124820550D01*
X151860577Y-124749121D01*
X151870018Y-124737616D01*
X151873010Y-124735022D01*
X151875848Y-124730512D01*
X151879232Y-124726390D01*
X151880748Y-124722728D01*
X151888675Y-124710137D01*
X151960103Y-124567279D01*
X151970613Y-124539816D01*
X151970994Y-124534440D01*
X151973057Y-124529462D01*
X151975939Y-124500198D01*
X151975939Y-124071626D01*
X151973057Y-124042362D01*
X151970994Y-124037383D01*
X151970613Y-124032008D01*
X151960103Y-124004545D01*
X151888675Y-123861687D01*
X151880746Y-123849092D01*
X151879231Y-123845433D01*
X151875849Y-123841312D01*
X151873010Y-123836802D01*
X151870018Y-123834207D01*
X151860576Y-123822702D01*
X151789147Y-123751274D01*
X151777647Y-123741836D01*
X151775050Y-123738842D01*
X151770533Y-123735999D01*
X151766416Y-123732620D01*
X151762759Y-123731105D01*
X151750164Y-123723177D01*
X151607307Y-123651748D01*
X151579844Y-123641239D01*
X151574469Y-123640857D01*
X151569489Y-123638794D01*
X151540225Y-123635912D01*
X151261653Y-123635912D01*
X151261653Y-123285912D01*
X151258771Y-123256648D01*
X151236373Y-123202576D01*
X151194989Y-123161192D01*
X151140917Y-123138794D01*
X151082389Y-123138794D01*
X151028317Y-123161192D01*
X150986933Y-123202576D01*
X150964535Y-123256648D01*
X150961653Y-123285912D01*
X148118797Y-123285912D01*
X148115915Y-123256648D01*
X148093517Y-123202576D01*
X148052133Y-123161192D01*
X147998061Y-123138794D01*
X147939533Y-123138794D01*
X147885461Y-123161192D01*
X147844077Y-123202576D01*
X147821679Y-123256648D01*
X147818797Y-123285912D01*
X147818797Y-123635912D01*
X147540225Y-123635912D01*
X147510961Y-123638794D01*
X147505980Y-123640857D01*
X147500606Y-123641239D01*
X147473142Y-123651748D01*
X147330286Y-123723177D01*
X147317692Y-123731104D01*
X147314033Y-123732620D01*
X147309912Y-123736001D01*
X147305400Y-123738842D01*
X147302803Y-123741835D01*
X147291303Y-123751274D01*
X147219874Y-123822702D01*
X147210434Y-123834204D01*
X147207440Y-123836801D01*
X147204598Y-123841315D01*
X147201219Y-123845433D01*
X147199703Y-123849091D01*
X147191775Y-123861687D01*
X147120347Y-124004544D01*
X147109837Y-124032008D01*
X147109455Y-124037383D01*
X147107393Y-124042362D01*
X147104511Y-124071626D01*
X146761654Y-124071626D01*
X146761654Y-124000198D01*
X146758772Y-123970934D01*
X146756708Y-123965953D01*
X146756327Y-123960579D01*
X146745818Y-123933115D01*
X146674389Y-123790259D01*
X146671308Y-123785364D01*
X146670539Y-123783057D01*
X146668046Y-123780182D01*
X146658724Y-123765373D01*
X146644514Y-123753049D01*
X146632193Y-123738842D01*
X146617387Y-123729522D01*
X146614509Y-123727026D01*
X146612197Y-123726255D01*
X146607307Y-123723177D01*
X146464450Y-123651748D01*
X146436987Y-123641239D01*
X146431612Y-123640857D01*
X146426632Y-123638794D01*
X146397368Y-123635912D01*
X146111654Y-123635912D01*
X146082390Y-123638794D01*
X146077412Y-123640855D01*
X146072035Y-123641238D01*
X146044572Y-123651748D01*
X145901714Y-123723177D01*
X145876828Y-123738842D01*
X145838482Y-123783057D01*
X145819974Y-123838579D01*
X145824122Y-123896960D01*
X145850297Y-123949309D01*
X145894512Y-123987655D01*
X145950034Y-124006163D01*
X146008415Y-124002015D01*
X146035878Y-123991505D01*
X146147064Y-123935912D01*
X146361958Y-123935912D01*
X146428422Y-123969144D01*
X146461654Y-124035608D01*
X146461654Y-124050350D01*
X146433386Y-124064484D01*
X146111654Y-124064484D01*
X146082390Y-124067366D01*
X146077411Y-124069428D01*
X146072036Y-124069810D01*
X146044573Y-124080319D01*
X145901715Y-124151748D01*
X145896821Y-124154828D01*
X145894512Y-124155598D01*
X145891636Y-124158091D01*
X145876829Y-124167412D01*
X145864504Y-124181622D01*
X145850297Y-124193944D01*
X145840976Y-124208750D01*
X145838482Y-124211627D01*
X145837711Y-124213937D01*
X145834632Y-124218830D01*
X145763204Y-124361687D01*
X145752694Y-124389151D01*
X145752312Y-124394526D01*
X145750250Y-124399505D01*
X145747368Y-124428769D01*
X145404510Y-124428769D01*
X145404510Y-123285912D01*
X145402615Y-123266674D01*
X145402771Y-123263136D01*
X145402079Y-123261235D01*
X145401628Y-123256648D01*
X145391667Y-123232602D01*
X145382770Y-123208134D01*
X145380510Y-123205666D01*
X145379230Y-123202576D01*
X145360832Y-123184178D01*
X145343243Y-123164971D01*
X145340209Y-123163555D01*
X145337846Y-123161192D01*
X145313815Y-123151238D01*
X145290206Y-123140220D01*
X145286861Y-123140073D01*
X145283774Y-123138794D01*
X145257750Y-123138794D01*
X145231735Y-123137651D01*
X145228592Y-123138794D01*
X145225246Y-123138794D01*
X145201193Y-123148757D01*
X145176733Y-123157652D01*
X145174265Y-123159911D01*
X145171174Y-123161192D01*
X145152765Y-123179600D01*
X145133570Y-123197179D01*
X145131220Y-123201145D01*
X145129790Y-123202576D01*
X145128434Y-123205848D01*
X145118583Y-123222479D01*
X144754510Y-124002635D01*
X144390437Y-123222479D01*
X144380583Y-123205844D01*
X144379230Y-123202576D01*
X144377801Y-123201147D01*
X144375451Y-123197179D01*
X144356243Y-123179589D01*
X144337846Y-123161192D01*
X144334755Y-123159911D01*
X144332288Y-123157652D01*
X144307822Y-123148755D01*
X144283774Y-123138794D01*
X144280428Y-123138794D01*
X144277285Y-123137651D01*
X144251281Y-123138794D01*
X144225246Y-123138794D01*
X144222155Y-123140074D01*
X144218815Y-123140221D01*
X144195219Y-123151231D01*
X144171174Y-123161192D01*
X144168810Y-123163555D01*
X144165777Y-123164971D01*
X144148187Y-123184178D01*
X144129790Y-123202576D01*
X144128509Y-123205666D01*
X144126250Y-123208134D01*
X144117353Y-123232599D01*
X144107392Y-123256648D01*
X144106940Y-123261236D01*
X144106249Y-123263137D01*
X144106404Y-123266675D01*
X144104510Y-123285912D01*
X143866415Y-123285912D01*
X143866415Y-122970984D01*
X153996867Y-122970984D01*
X153996867Y-127517495D01*
G37*
D11*
%TO.P,U-2,1,GND*%
%TO.N,GND*%
X138650000Y-109510000D03*
%TO.P,U-2,2,~TRIG*%
%TO.N,/THR*%
X138650000Y-110780000D03*
%TO.P,U-2,3,OUT*%
%TO.N,Net-(U-2-OUT)*%
X138650000Y-112050000D03*
%TO.P,U-2,4,~RST*%
%TO.N,/Vdd*%
X138650000Y-113320000D03*
%TO.P,U-2,5,CTRL*%
%TO.N,unconnected-(U-2-CTRL-Pad5)*%
X143800000Y-113320000D03*
%TO.P,U-2,6,THR*%
%TO.N,/THR*%
X143800000Y-112050000D03*
%TO.P,U-2,7,DIS*%
%TO.N,/DIS*%
X143800000Y-110780000D03*
%TO.P,U-2,8,VDD*%
%TO.N,/Vdd*%
X143800000Y-109510000D03*
%TD*%
D12*
%TO.P,C1,1*%
%TO.N,/THR*%
X134700000Y-110700000D03*
%TO.P,C1,2*%
%TO.N,GND*%
X134700000Y-108800000D03*
%TD*%
D13*
%TO.P,R3,1*%
%TO.N,Net-(U-2-OUT)*%
X134700000Y-112725000D03*
%TO.P,R3,2*%
%TO.N,Net-(D1-A)*%
X134700000Y-114550000D03*
%TD*%
%TO.P,R1,1*%
%TO.N,/Vdd*%
X147600000Y-108725000D03*
%TO.P,R1,2*%
%TO.N,/DIS*%
X147600000Y-110550000D03*
%TD*%
D14*
%TO.P,D1,1,K*%
%TO.N,GND*%
X134700000Y-118750000D03*
%TO.P,D1,2,A*%
%TO.N,Net-(D1-A)*%
X134700000Y-116875000D03*
%TD*%
D13*
%TO.P,R2,1*%
%TO.N,/DIS*%
X147600000Y-112725000D03*
%TO.P,R2,2*%
%TO.N,/THR*%
X147600000Y-114550000D03*
%TD*%
D15*
%TO.N,GND*%
X134700000Y-120500000D03*
X138700000Y-107700000D03*
X134700000Y-107200000D03*
%TO.N,/Vdd*%
X154025000Y-107075000D03*
X128400000Y-107200000D03*
%TD*%
D16*
%TO.N,GND*%
X134700000Y-108800000D02*
X134700000Y-107200000D01*
X134700000Y-118750000D02*
X134700000Y-120500000D01*
X138650000Y-109510000D02*
X138650000Y-107750000D01*
X138650000Y-107750000D02*
X138700000Y-107700000D01*
%TO.N,/THR*%
X145100000Y-112050000D02*
X143800000Y-112050000D01*
X134700000Y-110700000D02*
X138570000Y-110700000D01*
X140480000Y-110780000D02*
X138650000Y-110780000D01*
X141750000Y-112050000D02*
X140480000Y-110780000D01*
X138570000Y-110700000D02*
X138650000Y-110780000D01*
X143800000Y-112050000D02*
X141750000Y-112050000D01*
X147600000Y-114550000D02*
X145100000Y-112050000D01*
%TO.N,Net-(D1-A)*%
X134700000Y-114550000D02*
X134700000Y-116875000D01*
%TO.N,/DIS*%
X143800000Y-110780000D02*
X147370000Y-110780000D01*
X147600000Y-110550000D02*
X147600000Y-112725000D01*
X147370000Y-110780000D02*
X147600000Y-110550000D01*
%TO.N,/Vdd*%
X146815000Y-109510000D02*
X147600000Y-108725000D01*
X143800000Y-109510000D02*
X146815000Y-109510000D01*
%TO.N,Net-(U-2-OUT)*%
X136575000Y-112725000D02*
X134700000Y-112725000D01*
X137250000Y-112050000D02*
X136575000Y-112725000D01*
X138650000Y-112050000D02*
X137250000Y-112050000D01*
%TD*%
%TA.AperFunction,Conductor*%
%TO.N,/Vdd*%
G36*
X160442539Y-92520185D02*
G01*
X160488294Y-92572989D01*
X160499500Y-92624500D01*
X160499500Y-131375500D01*
X160479815Y-131442539D01*
X160427011Y-131488294D01*
X160375500Y-131499500D01*
X121624500Y-131499500D01*
X121557461Y-131479815D01*
X121511706Y-131427011D01*
X121500500Y-131375500D01*
X121500500Y-127357553D01*
X144025378Y-127357553D01*
X153838082Y-127357553D01*
X153838082Y-123129751D01*
X144025378Y-123129751D01*
X144025378Y-127357553D01*
X121500500Y-127357553D01*
X121500500Y-118452731D01*
X133799500Y-118452731D01*
X133799500Y-119047268D01*
X133802313Y-119077269D01*
X133802315Y-119077281D01*
X133846544Y-119203678D01*
X133846545Y-119203680D01*
X133926069Y-119311430D01*
X134033819Y-119390954D01*
X134033821Y-119390955D01*
X134160218Y-119435184D01*
X134160222Y-119435184D01*
X134160226Y-119435186D01*
X134175231Y-119436593D01*
X134190232Y-119438000D01*
X134190236Y-119438000D01*
X134275500Y-119438000D01*
X134342539Y-119457685D01*
X134388294Y-119510489D01*
X134399500Y-119562000D01*
X134399500Y-119937770D01*
X134379815Y-120004809D01*
X134350990Y-120036143D01*
X134346635Y-120039484D01*
X134239487Y-120146632D01*
X134239485Y-120146635D01*
X134163719Y-120277863D01*
X134124500Y-120424234D01*
X134124500Y-120575765D01*
X134163719Y-120722136D01*
X134201602Y-120787750D01*
X134239485Y-120853365D01*
X134346635Y-120960515D01*
X134477865Y-121036281D01*
X134624234Y-121075500D01*
X134624236Y-121075500D01*
X134775764Y-121075500D01*
X134775766Y-121075500D01*
X134922135Y-121036281D01*
X135053365Y-120960515D01*
X135160515Y-120853365D01*
X135236281Y-120722135D01*
X135275500Y-120575766D01*
X135275500Y-120424234D01*
X135236281Y-120277865D01*
X135160515Y-120146635D01*
X135053365Y-120039485D01*
X135053364Y-120039484D01*
X135049010Y-120036143D01*
X135007809Y-119979714D01*
X135000500Y-119937770D01*
X135000500Y-119562000D01*
X135020185Y-119494961D01*
X135072989Y-119449206D01*
X135124500Y-119438000D01*
X135209768Y-119438000D01*
X135223101Y-119436749D01*
X135239774Y-119435186D01*
X135239778Y-119435184D01*
X135239781Y-119435184D01*
X135310845Y-119410316D01*
X135366179Y-119390955D01*
X135473930Y-119311430D01*
X135553455Y-119203679D01*
X135597686Y-119077274D01*
X135600500Y-119047264D01*
X135600500Y-118452736D01*
X135597686Y-118422726D01*
X135597684Y-118422722D01*
X135597684Y-118422718D01*
X135553455Y-118296321D01*
X135553454Y-118296319D01*
X135473930Y-118188569D01*
X135366180Y-118109045D01*
X135366178Y-118109044D01*
X135239781Y-118064815D01*
X135239769Y-118064813D01*
X135209768Y-118062000D01*
X135209764Y-118062000D01*
X134190236Y-118062000D01*
X134190232Y-118062000D01*
X134160230Y-118064813D01*
X134160218Y-118064815D01*
X134033821Y-118109044D01*
X134033819Y-118109045D01*
X133926069Y-118188569D01*
X133846545Y-118296319D01*
X133846544Y-118296321D01*
X133802315Y-118422718D01*
X133802313Y-118422730D01*
X133799500Y-118452731D01*
X121500500Y-118452731D01*
X121500500Y-114233230D01*
X133799500Y-114233230D01*
X133799500Y-114866769D01*
X133802353Y-114897199D01*
X133802353Y-114897201D01*
X133847206Y-115025380D01*
X133847207Y-115025382D01*
X133927850Y-115134650D01*
X134037118Y-115215293D01*
X134079845Y-115230244D01*
X134165299Y-115260146D01*
X134195730Y-115263000D01*
X134195734Y-115263000D01*
X134275500Y-115263000D01*
X134342539Y-115282685D01*
X134388294Y-115335489D01*
X134399500Y-115387000D01*
X134399500Y-116063000D01*
X134379815Y-116130039D01*
X134327011Y-116175794D01*
X134275500Y-116187000D01*
X134190232Y-116187000D01*
X134160230Y-116189813D01*
X134160218Y-116189815D01*
X134033821Y-116234044D01*
X134033819Y-116234045D01*
X133926069Y-116313569D01*
X133846545Y-116421319D01*
X133846544Y-116421321D01*
X133802315Y-116547718D01*
X133802313Y-116547730D01*
X133799500Y-116577731D01*
X133799500Y-117172268D01*
X133802313Y-117202269D01*
X133802315Y-117202281D01*
X133846544Y-117328678D01*
X133846545Y-117328680D01*
X133926069Y-117436430D01*
X134033819Y-117515954D01*
X134033821Y-117515955D01*
X134160218Y-117560184D01*
X134160222Y-117560184D01*
X134160226Y-117560186D01*
X134175231Y-117561593D01*
X134190232Y-117563000D01*
X134190236Y-117563000D01*
X135209768Y-117563000D01*
X135223101Y-117561749D01*
X135239774Y-117560186D01*
X135239778Y-117560184D01*
X135239781Y-117560184D01*
X135310845Y-117535316D01*
X135366179Y-117515955D01*
X135473930Y-117436430D01*
X135553455Y-117328679D01*
X135597686Y-117202274D01*
X135600500Y-117172264D01*
X135600500Y-116577736D01*
X135597686Y-116547726D01*
X135597684Y-116547722D01*
X135597684Y-116547718D01*
X135553455Y-116421321D01*
X135553454Y-116421319D01*
X135473930Y-116313569D01*
X135366180Y-116234045D01*
X135366178Y-116234044D01*
X135239781Y-116189815D01*
X135239769Y-116189813D01*
X135209768Y-116187000D01*
X135209764Y-116187000D01*
X135124500Y-116187000D01*
X135057461Y-116167315D01*
X135011706Y-116114511D01*
X135000500Y-116063000D01*
X135000500Y-115387000D01*
X135020185Y-115319961D01*
X135072989Y-115274206D01*
X135124500Y-115263000D01*
X135204270Y-115263000D01*
X135234699Y-115260146D01*
X135234701Y-115260146D01*
X135298790Y-115237719D01*
X135362882Y-115215293D01*
X135472150Y-115134650D01*
X135552793Y-115025382D01*
X135575219Y-114961290D01*
X135597646Y-114897201D01*
X135597646Y-114897199D01*
X135600500Y-114866769D01*
X135600500Y-114233230D01*
X135597646Y-114202800D01*
X135597646Y-114202798D01*
X135552793Y-114074619D01*
X135552792Y-114074617D01*
X135472150Y-113965350D01*
X135362882Y-113884707D01*
X135362880Y-113884706D01*
X135234700Y-113839853D01*
X135204270Y-113837000D01*
X135204266Y-113837000D01*
X134195734Y-113837000D01*
X134195730Y-113837000D01*
X134165300Y-113839853D01*
X134165298Y-113839853D01*
X134037119Y-113884706D01*
X134037117Y-113884707D01*
X133927850Y-113965350D01*
X133847207Y-114074617D01*
X133847206Y-114074619D01*
X133802353Y-114202798D01*
X133802353Y-114202800D01*
X133799500Y-114233230D01*
X121500500Y-114233230D01*
X121500500Y-113570001D01*
X137277704Y-113570001D01*
X137277899Y-113572486D01*
X137323718Y-113730198D01*
X137407314Y-113871552D01*
X137407321Y-113871561D01*
X137523438Y-113987678D01*
X137523447Y-113987685D01*
X137664803Y-114071282D01*
X137664806Y-114071283D01*
X137822504Y-114117099D01*
X137822510Y-114117100D01*
X137859350Y-114119999D01*
X137859366Y-114120000D01*
X138400000Y-114120000D01*
X138900000Y-114120000D01*
X139440634Y-114120000D01*
X139440649Y-114119999D01*
X139477489Y-114117100D01*
X139477495Y-114117099D01*
X139635193Y-114071283D01*
X139635196Y-114071282D01*
X139776552Y-113987685D01*
X139776561Y-113987678D01*
X139892678Y-113871561D01*
X139892685Y-113871552D01*
X139976281Y-113730198D01*
X140022100Y-113572486D01*
X140022295Y-113570001D01*
X140022295Y-113570000D01*
X138900000Y-113570000D01*
X138900000Y-114120000D01*
X138400000Y-114120000D01*
X138400000Y-113570000D01*
X137277705Y-113570000D01*
X137277704Y-113570001D01*
X121500500Y-113570001D01*
X121500500Y-112408230D01*
X133799500Y-112408230D01*
X133799500Y-113041769D01*
X133802353Y-113072199D01*
X133802353Y-113072201D01*
X133847206Y-113200380D01*
X133847207Y-113200382D01*
X133927850Y-113309650D01*
X134037118Y-113390293D01*
X134079845Y-113405244D01*
X134165299Y-113435146D01*
X134195730Y-113438000D01*
X134195734Y-113438000D01*
X135204270Y-113438000D01*
X135234699Y-113435146D01*
X135234701Y-113435146D01*
X135310521Y-113408615D01*
X135320450Y-113405140D01*
X135362882Y-113390293D01*
X135472150Y-113309650D01*
X135552793Y-113200382D01*
X135575063Y-113136739D01*
X142724500Y-113136739D01*
X142724500Y-113503260D01*
X142734426Y-113571391D01*
X142785803Y-113676485D01*
X142868514Y-113759196D01*
X142868515Y-113759196D01*
X142868517Y-113759198D01*
X142973607Y-113810573D01*
X143007673Y-113815536D01*
X143041739Y-113820500D01*
X143041740Y-113820500D01*
X144558261Y-113820500D01*
X144580971Y-113817191D01*
X144626393Y-113810573D01*
X144731483Y-113759198D01*
X144814198Y-113676483D01*
X144865573Y-113571393D01*
X144875500Y-113503260D01*
X144875500Y-113136740D01*
X144865573Y-113068607D01*
X144814198Y-112963517D01*
X144814196Y-112963515D01*
X144814196Y-112963514D01*
X144731485Y-112880803D01*
X144626391Y-112829426D01*
X144558261Y-112819500D01*
X144558260Y-112819500D01*
X143041740Y-112819500D01*
X143041739Y-112819500D01*
X142973608Y-112829426D01*
X142868514Y-112880803D01*
X142785803Y-112963514D01*
X142734426Y-113068608D01*
X142724500Y-113136739D01*
X135575063Y-113136739D01*
X135584929Y-113108544D01*
X135625651Y-113051769D01*
X135690604Y-113026022D01*
X135701970Y-113025500D01*
X136614560Y-113025500D01*
X136614562Y-113025500D01*
X136690989Y-113005021D01*
X136759511Y-112965460D01*
X136815460Y-112909511D01*
X137338152Y-112386819D01*
X137365079Y-112372115D01*
X137390898Y-112355523D01*
X137397098Y-112354631D01*
X137399475Y-112353334D01*
X137425833Y-112350500D01*
X137532003Y-112350500D01*
X137599042Y-112370185D01*
X137632923Y-112402450D01*
X137641775Y-112414849D01*
X137640660Y-112415644D01*
X137644455Y-112422594D01*
X137644797Y-112422989D01*
X137644842Y-112423303D01*
X137668970Y-112467490D01*
X137663986Y-112537182D01*
X137622114Y-112593115D01*
X137610926Y-112600580D01*
X137523444Y-112652317D01*
X137523438Y-112652321D01*
X137407321Y-112768438D01*
X137407314Y-112768447D01*
X137323718Y-112909801D01*
X137277899Y-113067513D01*
X137277704Y-113069998D01*
X137277705Y-113070000D01*
X140022295Y-113070000D01*
X140022295Y-113069999D01*
X140022100Y-113067513D01*
X139976281Y-112909801D01*
X139892685Y-112768447D01*
X139892678Y-112768438D01*
X139776561Y-112652321D01*
X139776552Y-112652314D01*
X139689074Y-112600580D01*
X139641390Y-112549511D01*
X139628887Y-112480769D01*
X139655532Y-112416180D01*
X139664074Y-112406656D01*
X139664195Y-112406486D01*
X139664198Y-112406483D01*
X139715573Y-112301393D01*
X139725500Y-112233260D01*
X139725500Y-111866740D01*
X139715573Y-111798607D01*
X139664198Y-111693517D01*
X139664196Y-111693515D01*
X139664196Y-111693514D01*
X139581485Y-111610803D01*
X139476391Y-111559426D01*
X139408261Y-111549500D01*
X139408260Y-111549500D01*
X137891740Y-111549500D01*
X137891739Y-111549500D01*
X137823608Y-111559426D01*
X137718514Y-111610803D01*
X137635805Y-111693512D01*
X137632923Y-111697550D01*
X137577949Y-111740674D01*
X137532003Y-111749500D01*
X137210438Y-111749500D01*
X137179867Y-111757691D01*
X137134008Y-111769979D01*
X137134007Y-111769980D01*
X137084427Y-111798606D01*
X137084426Y-111798607D01*
X137065490Y-111809539D01*
X137065487Y-111809541D01*
X136486848Y-112388181D01*
X136425525Y-112421666D01*
X136399167Y-112424500D01*
X135701970Y-112424500D01*
X135634931Y-112404815D01*
X135589176Y-112352011D01*
X135584929Y-112341456D01*
X135569281Y-112296739D01*
X135552793Y-112249618D01*
X135472150Y-112140350D01*
X135362882Y-112059707D01*
X135362880Y-112059706D01*
X135234700Y-112014853D01*
X135204270Y-112012000D01*
X135204266Y-112012000D01*
X134195734Y-112012000D01*
X134195730Y-112012000D01*
X134165300Y-112014853D01*
X134165298Y-112014853D01*
X134037119Y-112059706D01*
X134037117Y-112059707D01*
X133927850Y-112140350D01*
X133847207Y-112249617D01*
X133847206Y-112249619D01*
X133802353Y-112377798D01*
X133802353Y-112377800D01*
X133799500Y-112408230D01*
X121500500Y-112408230D01*
X121500500Y-110395730D01*
X133774500Y-110395730D01*
X133774500Y-111004269D01*
X133777353Y-111034699D01*
X133777353Y-111034701D01*
X133822206Y-111162880D01*
X133822207Y-111162882D01*
X133902850Y-111272150D01*
X134012118Y-111352793D01*
X134054845Y-111367744D01*
X134140299Y-111397646D01*
X134170730Y-111400500D01*
X134170734Y-111400500D01*
X135229270Y-111400500D01*
X135259699Y-111397646D01*
X135259701Y-111397646D01*
X135323790Y-111375219D01*
X135387882Y-111352793D01*
X135497150Y-111272150D01*
X135577793Y-111162882D01*
X135599732Y-111100185D01*
X135605555Y-111083544D01*
X135646277Y-111026769D01*
X135711230Y-111001022D01*
X135722596Y-111000500D01*
X137491919Y-111000500D01*
X137558958Y-111020185D01*
X137603319Y-111070039D01*
X137635802Y-111136484D01*
X137718514Y-111219196D01*
X137718515Y-111219196D01*
X137718517Y-111219198D01*
X137823607Y-111270573D01*
X137834424Y-111272149D01*
X137891739Y-111280500D01*
X137891740Y-111280500D01*
X139408261Y-111280500D01*
X139430971Y-111277191D01*
X139476393Y-111270573D01*
X139581483Y-111219198D01*
X139664198Y-111136483D01*
X139664200Y-111136477D01*
X139667077Y-111132450D01*
X139722051Y-111089326D01*
X139767997Y-111080500D01*
X140304167Y-111080500D01*
X140371206Y-111100185D01*
X140391848Y-111116819D01*
X141509540Y-112234511D01*
X141565489Y-112290460D01*
X141565491Y-112290461D01*
X141565495Y-112290464D01*
X141634004Y-112330017D01*
X141634011Y-112330021D01*
X141710438Y-112350500D01*
X142682003Y-112350500D01*
X142749042Y-112370185D01*
X142782923Y-112402450D01*
X142785805Y-112406487D01*
X142868514Y-112489196D01*
X142868515Y-112489196D01*
X142868517Y-112489198D01*
X142973607Y-112540573D01*
X143007673Y-112545536D01*
X143041739Y-112550500D01*
X143041740Y-112550500D01*
X144558261Y-112550500D01*
X144580971Y-112547191D01*
X144626393Y-112540573D01*
X144731483Y-112489198D01*
X144814198Y-112406483D01*
X144814200Y-112406477D01*
X144817077Y-112402450D01*
X144821793Y-112398750D01*
X144824284Y-112393297D01*
X144848965Y-112377435D01*
X144872051Y-112359326D01*
X144879315Y-112357930D01*
X144883062Y-112355523D01*
X144917997Y-112350500D01*
X144924167Y-112350500D01*
X144991206Y-112370185D01*
X145011848Y-112386819D01*
X146679784Y-114054755D01*
X146713269Y-114116078D01*
X146709146Y-114183386D01*
X146702355Y-114202796D01*
X146702353Y-114202805D01*
X146699500Y-114233230D01*
X146699500Y-114866769D01*
X146702353Y-114897199D01*
X146702353Y-114897201D01*
X146747206Y-115025380D01*
X146747207Y-115025382D01*
X146827850Y-115134650D01*
X146937118Y-115215293D01*
X146979845Y-115230244D01*
X147065299Y-115260146D01*
X147095730Y-115263000D01*
X147095734Y-115263000D01*
X148104270Y-115263000D01*
X148134699Y-115260146D01*
X148134701Y-115260146D01*
X148198790Y-115237719D01*
X148262882Y-115215293D01*
X148372150Y-115134650D01*
X148452793Y-115025382D01*
X148475219Y-114961290D01*
X148497646Y-114897201D01*
X148497646Y-114897199D01*
X148500500Y-114866769D01*
X148500500Y-114233230D01*
X148497646Y-114202800D01*
X148497646Y-114202798D01*
X148452793Y-114074619D01*
X148452792Y-114074617D01*
X148372150Y-113965350D01*
X148262882Y-113884707D01*
X148262880Y-113884706D01*
X148134700Y-113839853D01*
X148104270Y-113837000D01*
X148104266Y-113837000D01*
X147363333Y-113837000D01*
X147333892Y-113828355D01*
X147303906Y-113821832D01*
X147298890Y-113818077D01*
X147296294Y-113817315D01*
X147275652Y-113800681D01*
X147124652Y-113649681D01*
X147091167Y-113588358D01*
X147096151Y-113518666D01*
X147138023Y-113462733D01*
X147203487Y-113438316D01*
X147212333Y-113438000D01*
X148104270Y-113438000D01*
X148134699Y-113435146D01*
X148134701Y-113435146D01*
X148198790Y-113412719D01*
X148262882Y-113390293D01*
X148372150Y-113309650D01*
X148452793Y-113200382D01*
X148475219Y-113136290D01*
X148497646Y-113072201D01*
X148497646Y-113072199D01*
X148500500Y-113041769D01*
X148500500Y-112408230D01*
X148497646Y-112377800D01*
X148497646Y-112377798D01*
X148452793Y-112249619D01*
X148452792Y-112249617D01*
X148372150Y-112140350D01*
X148262882Y-112059707D01*
X148262880Y-112059706D01*
X148134700Y-112014853D01*
X148104270Y-112012000D01*
X148104266Y-112012000D01*
X148024500Y-112012000D01*
X147957461Y-111992315D01*
X147911706Y-111939511D01*
X147900500Y-111888000D01*
X147900500Y-111387000D01*
X147920185Y-111319961D01*
X147972989Y-111274206D01*
X148024500Y-111263000D01*
X148104270Y-111263000D01*
X148134699Y-111260146D01*
X148134701Y-111260146D01*
X148198790Y-111237719D01*
X148262882Y-111215293D01*
X148372150Y-111134650D01*
X148452793Y-111025382D01*
X148475219Y-110961290D01*
X148497646Y-110897201D01*
X148497646Y-110897199D01*
X148500500Y-110866769D01*
X148500500Y-110233230D01*
X148497646Y-110202800D01*
X148497646Y-110202798D01*
X148452793Y-110074619D01*
X148452792Y-110074617D01*
X148372150Y-109965350D01*
X148289396Y-109904275D01*
X148247147Y-109848629D01*
X148241688Y-109778972D01*
X148274756Y-109717423D01*
X148324028Y-109686800D01*
X148369117Y-109671859D01*
X148369124Y-109671856D01*
X148518345Y-109579815D01*
X148642315Y-109455845D01*
X148734356Y-109306624D01*
X148734358Y-109306619D01*
X148789505Y-109140197D01*
X148789506Y-109140190D01*
X148799999Y-109037486D01*
X148800000Y-109037473D01*
X148800000Y-108975000D01*
X146400001Y-108975000D01*
X146400001Y-109037486D01*
X146410494Y-109140197D01*
X146465641Y-109306619D01*
X146465643Y-109306624D01*
X146557684Y-109455845D01*
X146681654Y-109579815D01*
X146830875Y-109671856D01*
X146830880Y-109671858D01*
X146875972Y-109686800D01*
X146933417Y-109726572D01*
X146960240Y-109791088D01*
X146947925Y-109859864D01*
X146910602Y-109904276D01*
X146827850Y-109965350D01*
X146747207Y-110074617D01*
X146747206Y-110074619D01*
X146702353Y-110202798D01*
X146702353Y-110202800D01*
X146699500Y-110233230D01*
X146699500Y-110355500D01*
X146679815Y-110422539D01*
X146627011Y-110468294D01*
X146575500Y-110479500D01*
X144917997Y-110479500D01*
X144916195Y-110478971D01*
X144914381Y-110479447D01*
X144882808Y-110469167D01*
X144850958Y-110459815D01*
X144849162Y-110458212D01*
X144847944Y-110457816D01*
X144840112Y-110450137D01*
X144821956Y-110433935D01*
X144815316Y-110425805D01*
X144814198Y-110423517D01*
X144810105Y-110419424D01*
X144806154Y-110414586D01*
X144794902Y-110387915D01*
X144781029Y-110362509D01*
X144781486Y-110356115D01*
X144778995Y-110350211D01*
X144783947Y-110321693D01*
X144786013Y-110292817D01*
X144789854Y-110287685D01*
X144790951Y-110281372D01*
X144810537Y-110260057D01*
X144827885Y-110236884D01*
X144838082Y-110230081D01*
X144838226Y-110229925D01*
X144838375Y-110229885D01*
X144839075Y-110229419D01*
X144926550Y-110177687D01*
X144926561Y-110177678D01*
X145042678Y-110061561D01*
X145042685Y-110061552D01*
X145126281Y-109920198D01*
X145172100Y-109762486D01*
X145172295Y-109760001D01*
X145172295Y-109760000D01*
X142427705Y-109760000D01*
X142427704Y-109760001D01*
X142427899Y-109762486D01*
X142473718Y-109920198D01*
X142557314Y-110061552D01*
X142557321Y-110061561D01*
X142673438Y-110177678D01*
X142673446Y-110177684D01*
X142760925Y-110229419D01*
X142808608Y-110280488D01*
X142821112Y-110349230D01*
X142794467Y-110413819D01*
X142785927Y-110423340D01*
X142785804Y-110423513D01*
X142734426Y-110528608D01*
X142724500Y-110596739D01*
X142724500Y-110963260D01*
X142734426Y-111031391D01*
X142785803Y-111136485D01*
X142868514Y-111219196D01*
X142868515Y-111219196D01*
X142868517Y-111219198D01*
X142973607Y-111270573D01*
X142984424Y-111272149D01*
X143041739Y-111280500D01*
X143041740Y-111280500D01*
X144558261Y-111280500D01*
X144580971Y-111277191D01*
X144626393Y-111270573D01*
X144731483Y-111219198D01*
X144814198Y-111136483D01*
X144814200Y-111136477D01*
X144817077Y-111132450D01*
X144872051Y-111089326D01*
X144917997Y-111080500D01*
X146725288Y-111080500D01*
X146792327Y-111100185D01*
X146825058Y-111130867D01*
X146827850Y-111134650D01*
X146937118Y-111215293D01*
X146979845Y-111230244D01*
X147065299Y-111260146D01*
X147095730Y-111263000D01*
X147095734Y-111263000D01*
X147175500Y-111263000D01*
X147242539Y-111282685D01*
X147288294Y-111335489D01*
X147299500Y-111387000D01*
X147299500Y-111888000D01*
X147279815Y-111955039D01*
X147227011Y-112000794D01*
X147175500Y-112012000D01*
X147095730Y-112012000D01*
X147065300Y-112014853D01*
X147065298Y-112014853D01*
X146937119Y-112059706D01*
X146937117Y-112059707D01*
X146827850Y-112140350D01*
X146747207Y-112249617D01*
X146747206Y-112249619D01*
X146702353Y-112377798D01*
X146702353Y-112377800D01*
X146699500Y-112408230D01*
X146699500Y-112925167D01*
X146679815Y-112992206D01*
X146627011Y-113037961D01*
X146557853Y-113047905D01*
X146494297Y-113018880D01*
X146487819Y-113012848D01*
X145284512Y-111809541D01*
X145284511Y-111809540D01*
X145265574Y-111798607D01*
X145265574Y-111798605D01*
X145265571Y-111798605D01*
X145215994Y-111769981D01*
X145215991Y-111769979D01*
X145177775Y-111759739D01*
X145139562Y-111749500D01*
X145139560Y-111749500D01*
X144917997Y-111749500D01*
X144850958Y-111729815D01*
X144817077Y-111697550D01*
X144814194Y-111693512D01*
X144731485Y-111610803D01*
X144626391Y-111559426D01*
X144558261Y-111549500D01*
X144558260Y-111549500D01*
X143041740Y-111549500D01*
X143041739Y-111549500D01*
X142973608Y-111559426D01*
X142868514Y-111610803D01*
X142785805Y-111693512D01*
X142782923Y-111697550D01*
X142727949Y-111740674D01*
X142682003Y-111749500D01*
X141925833Y-111749500D01*
X141858794Y-111729815D01*
X141838152Y-111713181D01*
X140664510Y-110539539D01*
X140643682Y-110527514D01*
X140622853Y-110515489D01*
X140617174Y-110512210D01*
X140595990Y-110499979D01*
X140595991Y-110499979D01*
X140557775Y-110489739D01*
X140519562Y-110479500D01*
X140519560Y-110479500D01*
X139767997Y-110479500D01*
X139700958Y-110459815D01*
X139667077Y-110427550D01*
X139664194Y-110423512D01*
X139581485Y-110340803D01*
X139476391Y-110289426D01*
X139408261Y-110279500D01*
X139408260Y-110279500D01*
X137891740Y-110279500D01*
X137891739Y-110279500D01*
X137823608Y-110289426D01*
X137718514Y-110340803D01*
X137696137Y-110363181D01*
X137634814Y-110396666D01*
X137608456Y-110399500D01*
X135722596Y-110399500D01*
X135655557Y-110379815D01*
X135609802Y-110327011D01*
X135605555Y-110316456D01*
X135592623Y-110279500D01*
X135577793Y-110237118D01*
X135497150Y-110127850D01*
X135387882Y-110047207D01*
X135387880Y-110047206D01*
X135259700Y-110002353D01*
X135229270Y-109999500D01*
X135229266Y-109999500D01*
X134170734Y-109999500D01*
X134170730Y-109999500D01*
X134140300Y-110002353D01*
X134140298Y-110002353D01*
X134012119Y-110047206D01*
X134012117Y-110047207D01*
X133902850Y-110127850D01*
X133822207Y-110237117D01*
X133822206Y-110237119D01*
X133777353Y-110365298D01*
X133777353Y-110365300D01*
X133774500Y-110395730D01*
X121500500Y-110395730D01*
X121500500Y-108495730D01*
X133774500Y-108495730D01*
X133774500Y-109104269D01*
X133777353Y-109134699D01*
X133777353Y-109134701D01*
X133822205Y-109262876D01*
X133822207Y-109262882D01*
X133902850Y-109372150D01*
X134012118Y-109452793D01*
X134054845Y-109467744D01*
X134140299Y-109497646D01*
X134170730Y-109500500D01*
X134170734Y-109500500D01*
X135229270Y-109500500D01*
X135259699Y-109497646D01*
X135259701Y-109497646D01*
X135323790Y-109475219D01*
X135387882Y-109452793D01*
X135497150Y-109372150D01*
X135530665Y-109326739D01*
X137574500Y-109326739D01*
X137574500Y-109693260D01*
X137584426Y-109761391D01*
X137635803Y-109866485D01*
X137718514Y-109949196D01*
X137718515Y-109949196D01*
X137718517Y-109949198D01*
X137823607Y-110000573D01*
X137835824Y-110002353D01*
X137891739Y-110010500D01*
X137891740Y-110010500D01*
X139408261Y-110010500D01*
X139430971Y-110007191D01*
X139476393Y-110000573D01*
X139581483Y-109949198D01*
X139664198Y-109866483D01*
X139715573Y-109761393D01*
X139725500Y-109693260D01*
X139725500Y-109326740D01*
X139715776Y-109259998D01*
X142427704Y-109259998D01*
X142427705Y-109260000D01*
X143550000Y-109260000D01*
X144050000Y-109260000D01*
X145172295Y-109260000D01*
X145172295Y-109259998D01*
X145172100Y-109257513D01*
X145126281Y-109099801D01*
X145042685Y-108958447D01*
X145042678Y-108958438D01*
X144926561Y-108842321D01*
X144926552Y-108842314D01*
X144785196Y-108758717D01*
X144785193Y-108758716D01*
X144627495Y-108712900D01*
X144627489Y-108712899D01*
X144590649Y-108710000D01*
X144050000Y-108710000D01*
X144050000Y-109260000D01*
X143550000Y-109260000D01*
X143550000Y-108710000D01*
X143009350Y-108710000D01*
X142972510Y-108712899D01*
X142972504Y-108712900D01*
X142814806Y-108758716D01*
X142814803Y-108758717D01*
X142673447Y-108842314D01*
X142673438Y-108842321D01*
X142557321Y-108958438D01*
X142557314Y-108958447D01*
X142473718Y-109099801D01*
X142427899Y-109257513D01*
X142427704Y-109259998D01*
X139715776Y-109259998D01*
X139715573Y-109258607D01*
X139664198Y-109153517D01*
X139664196Y-109153515D01*
X139664196Y-109153514D01*
X139581485Y-109070803D01*
X139476391Y-109019426D01*
X139408261Y-109009500D01*
X139408260Y-109009500D01*
X139074500Y-109009500D01*
X139007461Y-108989815D01*
X138961706Y-108937011D01*
X138950500Y-108885500D01*
X138950500Y-108412513D01*
X146400000Y-108412513D01*
X146400000Y-108475000D01*
X147350000Y-108475000D01*
X147850000Y-108475000D01*
X148799999Y-108475000D01*
X148799999Y-108412528D01*
X148799998Y-108412513D01*
X148789505Y-108309802D01*
X148734358Y-108143380D01*
X148734356Y-108143375D01*
X148642315Y-107994154D01*
X148518345Y-107870184D01*
X148369124Y-107778143D01*
X148369119Y-107778141D01*
X148202697Y-107722994D01*
X148202690Y-107722993D01*
X148099986Y-107712500D01*
X147850000Y-107712500D01*
X147850000Y-108475000D01*
X147350000Y-108475000D01*
X147350000Y-107712500D01*
X147100029Y-107712500D01*
X147100012Y-107712501D01*
X146997302Y-107722994D01*
X146830880Y-107778141D01*
X146830875Y-107778143D01*
X146681654Y-107870184D01*
X146557684Y-107994154D01*
X146465643Y-108143375D01*
X146465641Y-108143380D01*
X146410494Y-108309802D01*
X146410493Y-108309809D01*
X146400000Y-108412513D01*
X138950500Y-108412513D01*
X138950500Y-108291495D01*
X138970185Y-108224456D01*
X139012498Y-108184108D01*
X139053365Y-108160515D01*
X139160515Y-108053365D01*
X139236281Y-107922135D01*
X139275500Y-107775766D01*
X139275500Y-107624234D01*
X139236281Y-107477865D01*
X139160515Y-107346635D01*
X139053365Y-107239485D01*
X138987750Y-107201602D01*
X138922136Y-107163719D01*
X138848950Y-107144109D01*
X138775766Y-107124500D01*
X138624234Y-107124500D01*
X138477863Y-107163719D01*
X138346635Y-107239485D01*
X138346632Y-107239487D01*
X138239487Y-107346632D01*
X138239485Y-107346635D01*
X138163719Y-107477863D01*
X138124500Y-107624234D01*
X138124500Y-107775766D01*
X138125137Y-107778143D01*
X138163719Y-107922136D01*
X138194529Y-107975500D01*
X138239485Y-108053365D01*
X138239487Y-108053367D01*
X138313181Y-108127061D01*
X138346666Y-108188384D01*
X138349500Y-108214742D01*
X138349500Y-108885500D01*
X138329815Y-108952539D01*
X138277011Y-108998294D01*
X138225500Y-109009500D01*
X137891739Y-109009500D01*
X137823608Y-109019426D01*
X137718514Y-109070803D01*
X137635803Y-109153514D01*
X137584426Y-109258608D01*
X137574500Y-109326739D01*
X135530665Y-109326739D01*
X135577793Y-109262882D01*
X135605201Y-109184553D01*
X135622646Y-109134701D01*
X135622646Y-109134699D01*
X135625500Y-109104269D01*
X135625500Y-108495730D01*
X135622646Y-108465300D01*
X135622646Y-108465298D01*
X135577793Y-108337119D01*
X135577792Y-108337117D01*
X135557633Y-108309802D01*
X135497150Y-108227850D01*
X135387882Y-108147207D01*
X135387880Y-108147206D01*
X135259700Y-108102353D01*
X135229270Y-108099500D01*
X135229266Y-108099500D01*
X135124500Y-108099500D01*
X135115814Y-108096949D01*
X135106853Y-108098238D01*
X135082812Y-108087259D01*
X135057461Y-108079815D01*
X135051533Y-108072974D01*
X135043297Y-108069213D01*
X135029007Y-108046978D01*
X135011706Y-108027011D01*
X135009418Y-108016496D01*
X135005523Y-108010435D01*
X135000500Y-107975500D01*
X135000500Y-107762229D01*
X135020185Y-107695190D01*
X135049016Y-107663852D01*
X135053360Y-107660517D01*
X135053365Y-107660515D01*
X135160515Y-107553365D01*
X135236281Y-107422135D01*
X135275500Y-107275766D01*
X135275500Y-107124234D01*
X135236281Y-106977865D01*
X135160515Y-106846635D01*
X135053365Y-106739485D01*
X134987750Y-106701602D01*
X134922136Y-106663719D01*
X134848950Y-106644109D01*
X134775766Y-106624500D01*
X134624234Y-106624500D01*
X134477863Y-106663719D01*
X134346635Y-106739485D01*
X134346632Y-106739487D01*
X134239487Y-106846632D01*
X134239485Y-106846635D01*
X134163719Y-106977863D01*
X134124500Y-107124234D01*
X134124500Y-107275765D01*
X134163719Y-107422136D01*
X134195894Y-107477863D01*
X134239485Y-107553365D01*
X134239487Y-107553367D01*
X134346635Y-107660515D01*
X134350984Y-107663852D01*
X134353232Y-107666931D01*
X134356703Y-107668516D01*
X134373680Y-107694934D01*
X134392188Y-107720279D01*
X134393013Y-107725017D01*
X134394477Y-107727294D01*
X134399500Y-107762229D01*
X134399500Y-107975500D01*
X134379815Y-108042539D01*
X134327011Y-108088294D01*
X134275500Y-108099500D01*
X134170730Y-108099500D01*
X134140300Y-108102353D01*
X134140298Y-108102353D01*
X134012119Y-108147206D01*
X134012117Y-108147207D01*
X133902850Y-108227850D01*
X133822207Y-108337117D01*
X133822206Y-108337119D01*
X133777353Y-108465298D01*
X133777353Y-108465300D01*
X133774500Y-108495730D01*
X121500500Y-108495730D01*
X121500500Y-92624500D01*
X121520185Y-92557461D01*
X121572989Y-92511706D01*
X121624500Y-92500500D01*
X160375500Y-92500500D01*
X160442539Y-92520185D01*
G37*
%TD.AperFunction*%
%TD*%
M02*
