%TF.GenerationSoftware,KiCad,Pcbnew,9.0.2-9.0.2-0~ubuntu22.04.1*%
%TF.CreationDate,2025-07-10T14:00:21-04:00*%
%TF.ProjectId,GettingToBlinky5.0,47657474-696e-4675-946f-426c696e6b79,rev?*%
%TF.SameCoordinates,Original*%
%TF.FileFunction,Legend,Top*%
%TF.FilePolarity,Positive*%
%FSLAX46Y46*%
G04 Gerber Fmt 4.6, Leading zero omitted, Abs format (unit mm)*
G04 Created by KiCad (PCBNEW 9.0.2-9.0.2-0~ubuntu22.04.1) date 2025-07-10 14:00:21*
%MOMM*%
%LPD*%
G01*
G04 APERTURE LIST*
%ADD10C,0.300000*%
%ADD11C,0.150000*%
%ADD12C,0.120000*%
G04 APERTURE END LIST*
D10*
X136054510Y-99015114D02*
X136268796Y-99086542D01*
X136268796Y-99086542D02*
X136340225Y-99157971D01*
X136340225Y-99157971D02*
X136411653Y-99300828D01*
X136411653Y-99300828D02*
X136411653Y-99515114D01*
X136411653Y-99515114D02*
X136340225Y-99657971D01*
X136340225Y-99657971D02*
X136268796Y-99729400D01*
X136268796Y-99729400D02*
X136125939Y-99800828D01*
X136125939Y-99800828D02*
X135554510Y-99800828D01*
X135554510Y-99800828D02*
X135554510Y-98300828D01*
X135554510Y-98300828D02*
X136054510Y-98300828D01*
X136054510Y-98300828D02*
X136197368Y-98372257D01*
X136197368Y-98372257D02*
X136268796Y-98443685D01*
X136268796Y-98443685D02*
X136340225Y-98586542D01*
X136340225Y-98586542D02*
X136340225Y-98729400D01*
X136340225Y-98729400D02*
X136268796Y-98872257D01*
X136268796Y-98872257D02*
X136197368Y-98943685D01*
X136197368Y-98943685D02*
X136054510Y-99015114D01*
X136054510Y-99015114D02*
X135554510Y-99015114D01*
X137268796Y-99800828D02*
X137125939Y-99729400D01*
X137125939Y-99729400D02*
X137054510Y-99586542D01*
X137054510Y-99586542D02*
X137054510Y-98300828D01*
X137840224Y-99800828D02*
X137840224Y-98800828D01*
X137840224Y-98300828D02*
X137768796Y-98372257D01*
X137768796Y-98372257D02*
X137840224Y-98443685D01*
X137840224Y-98443685D02*
X137911653Y-98372257D01*
X137911653Y-98372257D02*
X137840224Y-98300828D01*
X137840224Y-98300828D02*
X137840224Y-98443685D01*
X138554510Y-98800828D02*
X138554510Y-99800828D01*
X138554510Y-98943685D02*
X138625939Y-98872257D01*
X138625939Y-98872257D02*
X138768796Y-98800828D01*
X138768796Y-98800828D02*
X138983082Y-98800828D01*
X138983082Y-98800828D02*
X139125939Y-98872257D01*
X139125939Y-98872257D02*
X139197368Y-99015114D01*
X139197368Y-99015114D02*
X139197368Y-99800828D01*
X139911653Y-99800828D02*
X139911653Y-98300828D01*
X140054511Y-99229400D02*
X140483082Y-99800828D01*
X140483082Y-98800828D02*
X139911653Y-99372257D01*
X140983082Y-98800828D02*
X141340225Y-99800828D01*
X141697368Y-98800828D02*
X141340225Y-99800828D01*
X141340225Y-99800828D02*
X141197368Y-100157971D01*
X141197368Y-100157971D02*
X141125939Y-100229400D01*
X141125939Y-100229400D02*
X140983082Y-100300828D01*
X144125939Y-99800828D02*
X143411653Y-99800828D01*
X143411653Y-99800828D02*
X143411653Y-98300828D01*
X144625939Y-99015114D02*
X145125939Y-99015114D01*
X145340225Y-99800828D02*
X144625939Y-99800828D01*
X144625939Y-99800828D02*
X144625939Y-98300828D01*
X144625939Y-98300828D02*
X145340225Y-98300828D01*
X145983082Y-99800828D02*
X145983082Y-98300828D01*
X145983082Y-98300828D02*
X146340225Y-98300828D01*
X146340225Y-98300828D02*
X146554511Y-98372257D01*
X146554511Y-98372257D02*
X146697368Y-98515114D01*
X146697368Y-98515114D02*
X146768797Y-98657971D01*
X146768797Y-98657971D02*
X146840225Y-98943685D01*
X146840225Y-98943685D02*
X146840225Y-99157971D01*
X146840225Y-99157971D02*
X146768797Y-99443685D01*
X146768797Y-99443685D02*
X146697368Y-99586542D01*
X146697368Y-99586542D02*
X146554511Y-99729400D01*
X146554511Y-99729400D02*
X146340225Y-99800828D01*
X146340225Y-99800828D02*
X145983082Y-99800828D01*
D11*
X139844048Y-107469819D02*
X139844048Y-108279342D01*
X139844048Y-108279342D02*
X139891667Y-108374580D01*
X139891667Y-108374580D02*
X139939286Y-108422200D01*
X139939286Y-108422200D02*
X140034524Y-108469819D01*
X140034524Y-108469819D02*
X140225000Y-108469819D01*
X140225000Y-108469819D02*
X140320238Y-108422200D01*
X140320238Y-108422200D02*
X140367857Y-108374580D01*
X140367857Y-108374580D02*
X140415476Y-108279342D01*
X140415476Y-108279342D02*
X140415476Y-107469819D01*
X140891667Y-108088866D02*
X141653572Y-108088866D01*
X142082143Y-107565057D02*
X142129762Y-107517438D01*
X142129762Y-107517438D02*
X142225000Y-107469819D01*
X142225000Y-107469819D02*
X142463095Y-107469819D01*
X142463095Y-107469819D02*
X142558333Y-107517438D01*
X142558333Y-107517438D02*
X142605952Y-107565057D01*
X142605952Y-107565057D02*
X142653571Y-107660295D01*
X142653571Y-107660295D02*
X142653571Y-107755533D01*
X142653571Y-107755533D02*
X142605952Y-107898390D01*
X142605952Y-107898390D02*
X142034524Y-108469819D01*
X142034524Y-108469819D02*
X142653571Y-108469819D01*
X133159580Y-109916666D02*
X133207200Y-109964285D01*
X133207200Y-109964285D02*
X133254819Y-110107142D01*
X133254819Y-110107142D02*
X133254819Y-110202380D01*
X133254819Y-110202380D02*
X133207200Y-110345237D01*
X133207200Y-110345237D02*
X133111961Y-110440475D01*
X133111961Y-110440475D02*
X133016723Y-110488094D01*
X133016723Y-110488094D02*
X132826247Y-110535713D01*
X132826247Y-110535713D02*
X132683390Y-110535713D01*
X132683390Y-110535713D02*
X132492914Y-110488094D01*
X132492914Y-110488094D02*
X132397676Y-110440475D01*
X132397676Y-110440475D02*
X132302438Y-110345237D01*
X132302438Y-110345237D02*
X132254819Y-110202380D01*
X132254819Y-110202380D02*
X132254819Y-110107142D01*
X132254819Y-110107142D02*
X132302438Y-109964285D01*
X132302438Y-109964285D02*
X132350057Y-109916666D01*
X133254819Y-108964285D02*
X133254819Y-109535713D01*
X133254819Y-109249999D02*
X132254819Y-109249999D01*
X132254819Y-109249999D02*
X132397676Y-109345237D01*
X132397676Y-109345237D02*
X132492914Y-109440475D01*
X132492914Y-109440475D02*
X132540533Y-109535713D01*
X137254819Y-114866666D02*
X136778628Y-115199999D01*
X137254819Y-115438094D02*
X136254819Y-115438094D01*
X136254819Y-115438094D02*
X136254819Y-115057142D01*
X136254819Y-115057142D02*
X136302438Y-114961904D01*
X136302438Y-114961904D02*
X136350057Y-114914285D01*
X136350057Y-114914285D02*
X136445295Y-114866666D01*
X136445295Y-114866666D02*
X136588152Y-114866666D01*
X136588152Y-114866666D02*
X136683390Y-114914285D01*
X136683390Y-114914285D02*
X136731009Y-114961904D01*
X136731009Y-114961904D02*
X136778628Y-115057142D01*
X136778628Y-115057142D02*
X136778628Y-115438094D01*
X136254819Y-114533332D02*
X136254819Y-113914285D01*
X136254819Y-113914285D02*
X136635771Y-114247618D01*
X136635771Y-114247618D02*
X136635771Y-114104761D01*
X136635771Y-114104761D02*
X136683390Y-114009523D01*
X136683390Y-114009523D02*
X136731009Y-113961904D01*
X136731009Y-113961904D02*
X136826247Y-113914285D01*
X136826247Y-113914285D02*
X137064342Y-113914285D01*
X137064342Y-113914285D02*
X137159580Y-113961904D01*
X137159580Y-113961904D02*
X137207200Y-114009523D01*
X137207200Y-114009523D02*
X137254819Y-114104761D01*
X137254819Y-114104761D02*
X137254819Y-114390475D01*
X137254819Y-114390475D02*
X137207200Y-114485713D01*
X137207200Y-114485713D02*
X137159580Y-114533332D01*
X149954819Y-109804166D02*
X149478628Y-110137499D01*
X149954819Y-110375594D02*
X148954819Y-110375594D01*
X148954819Y-110375594D02*
X148954819Y-109994642D01*
X148954819Y-109994642D02*
X149002438Y-109899404D01*
X149002438Y-109899404D02*
X149050057Y-109851785D01*
X149050057Y-109851785D02*
X149145295Y-109804166D01*
X149145295Y-109804166D02*
X149288152Y-109804166D01*
X149288152Y-109804166D02*
X149383390Y-109851785D01*
X149383390Y-109851785D02*
X149431009Y-109899404D01*
X149431009Y-109899404D02*
X149478628Y-109994642D01*
X149478628Y-109994642D02*
X149478628Y-110375594D01*
X149954819Y-108851785D02*
X149954819Y-109423213D01*
X149954819Y-109137499D02*
X148954819Y-109137499D01*
X148954819Y-109137499D02*
X149097676Y-109232737D01*
X149097676Y-109232737D02*
X149192914Y-109327975D01*
X149192914Y-109327975D02*
X149240533Y-109423213D01*
X133254819Y-118550594D02*
X132254819Y-118550594D01*
X132254819Y-118550594D02*
X132254819Y-118312499D01*
X132254819Y-118312499D02*
X132302438Y-118169642D01*
X132302438Y-118169642D02*
X132397676Y-118074404D01*
X132397676Y-118074404D02*
X132492914Y-118026785D01*
X132492914Y-118026785D02*
X132683390Y-117979166D01*
X132683390Y-117979166D02*
X132826247Y-117979166D01*
X132826247Y-117979166D02*
X133016723Y-118026785D01*
X133016723Y-118026785D02*
X133111961Y-118074404D01*
X133111961Y-118074404D02*
X133207200Y-118169642D01*
X133207200Y-118169642D02*
X133254819Y-118312499D01*
X133254819Y-118312499D02*
X133254819Y-118550594D01*
X133254819Y-117026785D02*
X133254819Y-117598213D01*
X133254819Y-117312499D02*
X132254819Y-117312499D01*
X132254819Y-117312499D02*
X132397676Y-117407737D01*
X132397676Y-117407737D02*
X132492914Y-117502975D01*
X132492914Y-117502975D02*
X132540533Y-117598213D01*
X149954819Y-113804166D02*
X149478628Y-114137499D01*
X149954819Y-114375594D02*
X148954819Y-114375594D01*
X148954819Y-114375594D02*
X148954819Y-113994642D01*
X148954819Y-113994642D02*
X149002438Y-113899404D01*
X149002438Y-113899404D02*
X149050057Y-113851785D01*
X149050057Y-113851785D02*
X149145295Y-113804166D01*
X149145295Y-113804166D02*
X149288152Y-113804166D01*
X149288152Y-113804166D02*
X149383390Y-113851785D01*
X149383390Y-113851785D02*
X149431009Y-113899404D01*
X149431009Y-113899404D02*
X149478628Y-113994642D01*
X149478628Y-113994642D02*
X149478628Y-114375594D01*
X149050057Y-113423213D02*
X149002438Y-113375594D01*
X149002438Y-113375594D02*
X148954819Y-113280356D01*
X148954819Y-113280356D02*
X148954819Y-113042261D01*
X148954819Y-113042261D02*
X149002438Y-112947023D01*
X149002438Y-112947023D02*
X149050057Y-112899404D01*
X149050057Y-112899404D02*
X149145295Y-112851785D01*
X149145295Y-112851785D02*
X149240533Y-112851785D01*
X149240533Y-112851785D02*
X149383390Y-112899404D01*
X149383390Y-112899404D02*
X149954819Y-113470832D01*
X149954819Y-113470832D02*
X149954819Y-112851785D01*
D12*
%TO.C,U-2*%
X141225000Y-108855000D02*
X139275000Y-108855000D01*
X141225000Y-108855000D02*
X143175000Y-108855000D01*
X141225000Y-113975000D02*
X139275000Y-113975000D01*
X141225000Y-113975000D02*
X143175000Y-113975000D01*
X138525000Y-108950000D02*
X138285000Y-108620000D01*
X138765000Y-108620000D01*
X138525000Y-108950000D01*
G36*
X138525000Y-108950000D02*
G01*
X138285000Y-108620000D01*
X138765000Y-108620000D01*
X138525000Y-108950000D01*
G37*
%TO.C,C1*%
X133965000Y-110011252D02*
X133965000Y-109488748D01*
X135435000Y-110011252D02*
X135435000Y-109488748D01*
%TO.C,R3*%
X133965000Y-113410436D02*
X133965000Y-113864564D01*
X135435000Y-113410436D02*
X135435000Y-113864564D01*
%TO.C,R1*%
X146865000Y-109410436D02*
X146865000Y-109864564D01*
X148335000Y-109410436D02*
X148335000Y-109864564D01*
%TO.C,D1*%
X133740000Y-116812500D02*
X133740000Y-119497500D01*
X133740000Y-119497500D02*
X135660000Y-119497500D01*
X135660000Y-119497500D02*
X135660000Y-116812500D01*
%TO.C,R2*%
X146865000Y-113410436D02*
X146865000Y-113864564D01*
X148335000Y-113410436D02*
X148335000Y-113864564D01*
%TD*%
M02*
